<svg id="Icono_Correo" data-name="Icono / Correo" xmlns="http://www.w3.org/2000/svg" width="30" height="30" viewBox="0 0 30 30">
  <rect id="Rectángulo_387" data-name="Rectángulo 387" width="30" height="30" fill="none"/>
  <g id="Grupo_646" data-name="Grupo 646" transform="translate(-6 -967.362)">
    <path id="Trazado_823" data-name="Trazado 823" d="M11.341,974.362A2.349,2.349,0,0,0,9,976.7v11.707a2.349,2.349,0,0,0,2.341,2.341H30.659A2.349,2.349,0,0,0,33,988.411V976.7a2.349,2.349,0,0,0-2.341-2.342Zm0,1.171H30.659a1.174,1.174,0,0,1,.466.1l-9.393,8.387a1.027,1.027,0,0,1-1.445,0l-9.412-8.387A1.173,1.173,0,0,1,11.341,975.533Zm-1.162,1.052,6.732,6L10.3,988.941a1.211,1.211,0,0,1-.128-.531V976.7c0-.041.005-.079.009-.119Zm21.64,0c0,.04.009.078.009.119v11.707a1.211,1.211,0,0,1-.128.531l-6.595-6.366,6.713-5.991Zm-7.591,6.777,6.457,6.22H11.314l6.476-6.21,1.72,1.527a2.25,2.25,0,0,0,3,0l1.72-1.537Z" transform="translate(0)" fill="#ca9e64"/>
  </g>
</svg>
