<svg id="Icono_Telefono" data-name="Icono / Telefono" xmlns="http://www.w3.org/2000/svg" width="30" height="30" viewBox="0 0 30 30">
  <rect id="Rectángulo_387" data-name="Rectángulo 387" width="30" height="30" fill="none"/>
  <path id="Trazado_1169" data-name="Trazado 1169" d="M13.906,10a2.54,2.54,0,0,1,2,1.256l.06.084,2.065,2.975a2.1,2.1,0,0,1-.1,2.8l-.052.054-.777.787a.484.484,0,0,0-.112.665,14.381,14.381,0,0,0,1.775,2.112l.2.2a18.955,18.955,0,0,0,2.423,2.076.46.46,0,0,0,.628-.067l.037-.035.787-.787a2.1,2.1,0,0,1,2.8-.182l.058.039,2.975,2.065A2.571,2.571,0,0,1,30,26.094a2.977,2.977,0,0,1-.83,1.925L29.1,28.1c-.072.082-.153.174-.235.256a4.81,4.81,0,0,1-4,1.646c-2.914,0-6.483-1.82-9.765-5.1-3.3-3.3-5.1-6.861-5.1-9.785a4.828,4.828,0,0,1,1.646-3.988L11.9,10.9a2.989,2.989,0,0,1,2-.9Zm0,1.748a1.474,1.474,0,0,0-.93.409c-.072.051-.123.1-.194.164a3.661,3.661,0,0,0-1.217,2.791c-.051,2.607,2.045,6.063,4.714,8.722,2.648,2.638,5.992,4.642,8.6,4.591a3.659,3.659,0,0,0,2.8-1.207c.061-.072.1-.123.164-.194a1.474,1.474,0,0,0,.409-.93.848.848,0,0,0-.367-.73l-.052-.037-2.975-1.984a.73.73,0,0,0-.954.056l-.038.036-.9.9a1.623,1.623,0,0,1-2.249.143A29.51,29.51,0,0,1,17.9,21.994a27.076,27.076,0,0,1-2.382-2.71,1.618,1.618,0,0,1,.094-2.2l.049-.051.9-.9a.715.715,0,0,0,.107-.954l-.025-.038-1.984-2.975a.842.842,0,0,0-.757-.419Z" transform="translate(-5 -5)" fill="#ca9e64"/>
</svg>
