<svg id="Icono_Reconocimiento_2" data-name="Icono / Reconocimiento 2" xmlns="http://www.w3.org/2000/svg" width="50" height="50" viewBox="0 0 50 50">
  <g id="noun_Medal_867086" transform="translate(6.667 6.667)">
    <g id="Grupo_442" data-name="Grupo 442" transform="translate(0 0)">
      <path id="Trazado_862" data-name="Trazado 862" d="M40.64,5.191,28.8,18.091a12.428,12.428,0,0,0-8.423-.9L23.7,13.56l.038-.023.066-.09,6.868-7.455a.591.591,0,1,0-.87-.8h0l-6.472,7.026L16.89,5.193a.591.591,0,1,0-.871.8l6.513,7.1-4.537,4.947-.106.052L6.028,5.191a.591.591,0,0,0-.871.8L16.823,18.679a12.419,12.419,0,1,0,13.044,0L41.511,5.991a.591.591,0,1,0-.871-.8ZM34.58,29.247A11.236,11.236,0,1,1,31.289,21.3,11.2,11.2,0,0,1,34.58,29.247Z" transform="translate(-5.001 -5)" fill="#ca9e64"/>
      <path id="Trazado_863" data-name="Trazado 863" d="M39.392,47.388a1.552,1.552,0,0,0-.6.653l-1.242,2.517-2.777.4a1.548,1.548,0,0,0-.983.553,1.581,1.581,0,0,0-.356,1,1.549,1.549,0,0,0,.473,1.113l2.01,1.959-.474,2.766a1.608,1.608,0,0,0-.023.271,1.545,1.545,0,0,0,.473,1.113A1.553,1.553,0,0,0,37.708,60l2.484-1.306L42.677,60a1.563,1.563,0,0,0,2.29-1.376,1.615,1.615,0,0,0-.023-.271l-.475-2.766,2.01-1.959a1.549,1.549,0,0,0,.473-1.113,1.583,1.583,0,0,0-.356-1,1.548,1.548,0,0,0-.983-.553l-2.777-.4-1.242-2.517a1.55,1.55,0,0,0-1.4-.871A1.572,1.572,0,0,0,39.392,47.388Zm1.141,1.177,1.38,2.8a.593.593,0,0,0,.445.323l3.085.448a.359.359,0,0,1,.237.131.4.4,0,0,1,.089.251.359.359,0,0,1-.116.266l-2.232,2.176a.593.593,0,0,0-.17.524l.527,3.073.006.071a.362.362,0,0,1-.114.264A.387.387,0,0,1,43.4,59a.374.374,0,0,1-.177-.046l-2.76-1.45a.6.6,0,0,0-.55,0l-2.759,1.451a.374.374,0,0,1-.177.046.39.39,0,0,1-.267-.111.362.362,0,0,1-.114-.264l.006-.07.527-3.073a.6.6,0,0,0-.17-.524L34.731,52.78a.359.359,0,0,1-.116-.266.4.4,0,0,1,.089-.251.36.36,0,0,1,.237-.13l3.085-.448a.594.594,0,0,0,.445-.323l1.38-2.8A.366.366,0,0,1,40,48.406a.395.395,0,0,1,.394,0A.363.363,0,0,1,40.533,48.565Z" transform="translate(-21.85 -29.99)" fill="#ca9e64"/>
    </g>
  </g>
  <rect id="Rectángulo_582" data-name="Rectángulo 582" width="50" height="50" fill="none"/>
</svg>
