<svg xmlns="http://www.w3.org/2000/svg" width="48.22" height="53" viewBox="0 0 48.22 53">
  <path id="Trazado_871" data-name="Trazado 871" d="M17.51,23.239H13.6a1.454,1.454,0,0,0-1.454,1.454V35.079a1.454,1.454,0,0,0,2.908,0V31.34H17.51a4.071,4.071,0,0,0,4.05-4.05,4.007,4.007,0,0,0-4.05-4.05Zm0,5.193H15.053V26.147H17.51a1.117,1.117,0,0,1,1.143,1.143A1.143,1.143,0,0,1,17.51,28.432Zm11.468-5.21H25.053A1.454,1.454,0,0,0,23.6,24.676V35.1a1.454,1.454,0,0,0,1.454,1.454h3.925a4.071,4.071,0,0,0,4.071-4.071v-5.21a4.071,4.071,0,0,0-4.071-4.047Zm1.163,9.269a1.163,1.163,0,0,1-1.163,1.163H26.506V26.129h2.471a1.163,1.163,0,0,1,1.163,1.163Zm5,2.617V24.676a1.454,1.454,0,0,1,1.454-1.454h6.528a1.454,1.454,0,0,1,0,2.908H38.032v2.3H41.4a1.454,1.454,0,0,1,0,2.908h-3.37V35.1a1.454,1.454,0,0,1-2.908,0ZM52.428,10.4a7.031,7.031,0,0,0-7.022-7.019H11.23A7.031,7.031,0,0,0,4.208,10.4V49.367a7.031,7.031,0,0,0,7.022,7.019H37.364a1.4,1.4,0,0,0,.558-.113,1.454,1.454,0,0,0,.471-.314L52,42.354a1.5,1.5,0,0,0,.317-.471,1.454,1.454,0,0,0,.113-.558ZM7.116,49.367V10.4A4.12,4.12,0,0,1,11.23,6.294H45.406A4.12,4.12,0,0,1,49.52,10.4V39.871H42.929a7.028,7.028,0,0,0-7.019,7.022v6.586H11.23A4.12,4.12,0,0,1,7.116,49.367Zm40.346-6.589-8.644,8.644v-4.53a4.117,4.117,0,0,1,4.111-4.114Z" transform="translate(-4.208 -3.386)" fill="#ca9e64"/>
</svg>
