<svg id="Icono_Calendario" data-name="Icono / Calendario" xmlns="http://www.w3.org/2000/svg" width="50" height="50" viewBox="0 0 50 50">
  <rect id="Rectángulo_576" data-name="Rectángulo 576" width="50" height="50" fill="none"/>
  <g id="Calendar" transform="translate(4 3)">
    <path id="Trazado_597" data-name="Trazado 597" d="M38.74,6.17h-5.4V4.755a1.21,1.21,0,0,0-2.42,0V6.17H17.96V4.755a1.21,1.21,0,0,0-2.42,0V6.17h-5.4A6.049,6.049,0,0,0,4.09,12.22V40.845a6.049,6.049,0,0,0,6.049,6.049H31.07a1.229,1.229,0,0,0,.467-.094,1.21,1.21,0,0,0,.39-.261L44.434,34.031a1.21,1.21,0,0,0,.261-.392,1.164,1.164,0,0,0,.094-.465V12.22A6.049,6.049,0,0,0,38.74,6.17Zm-28.6,2.42h5.4v1.44a1.21,1.21,0,0,0,2.42,0V8.59H30.92v1.44a1.21,1.21,0,0,0,2.42,0V8.59h5.4a3.63,3.63,0,0,1,3.63,3.63v2.475H6.51V12.22a3.63,3.63,0,0,1,3.63-3.63ZM6.51,40.845V17.115H42.37v14.85H35.909a6.049,6.049,0,0,0-6.049,6.049v6.461H10.139A3.63,3.63,0,0,1,6.51,40.845Zm25.77-2.831a3.63,3.63,0,0,1,3.63-3.63h4.743L32.28,42.764Z" transform="translate(-4.09 -3.545)" fill="#ca9e64"/>
  </g>
</svg>
