<svg id="Icono_Entrenamiento" data-name="Icono / Entrenamiento" xmlns="http://www.w3.org/2000/svg" width="50" height="50" viewBox="0 0 50 50">
  <rect id="Rectángulo_578" data-name="Rectángulo 578" width="50" height="50" fill="none"/>
  <g id="noun_yoga_3826926" transform="translate(8.333 5)">
    <path id="Trazado_864" data-name="Trazado 864" d="M47.214,47.4H19.347a3.05,3.05,0,1,0,0,6.1h8.6v8.187a5.189,5.189,0,0,0,.1,1.016l-7.97,7.4a3.456,3.456,0,0,0,2.252,5.985l.111,0a3.442,3.442,0,0,0,2.379-.947l8.72-8.246h5.51v5.726a3.443,3.443,0,0,0,1.018,2.454,3.483,3.483,0,0,0,2.46,1.014c.074,0,.149,0,.224-.007A3.523,3.523,0,0,0,46,72.536v-8.36a4.223,4.223,0,0,0-4.222-4.213H38.613V53.5h8.6a3.05,3.05,0,1,0,0-6.1ZM23.538,73.789a1.593,1.593,0,1,1-2.188-2.316l7.459-6.929a5.246,5.246,0,0,0,2.417,1.975ZM47.214,51.632H37.68a.933.933,0,0,0-.933.933v7.4h-2.9a.933.933,0,1,0,0,1.867h7.928a2.353,2.353,0,0,1,2.355,2.347v8.36a1.654,1.654,0,0,1-1.5,1.686,1.6,1.6,0,0,1-1.716-1.6V65.965a.933.933,0,0,0-.933-.933H33.172a3.356,3.356,0,0,1-3.358-3.346v-9.12a.933.933,0,0,0-.933-.933H19.347a1.183,1.183,0,1,1,0-2.367H47.214a1.183,1.183,0,1,1,0,2.367Z" transform="translate(-16.292 -36.093)" fill="#ca9e64"/>
    <path id="Trazado_865" data-name="Trazado 865" d="M65.957,15.191a5.1,5.1,0,1,0-5.107-5.1A5.107,5.107,0,0,0,65.957,15.191Zm0-8.325a3.229,3.229,0,1,1-3.24,3.229A3.238,3.238,0,0,1,65.957,6.867Z" transform="translate(-48.968 -5)" fill="#ca9e64"/>
  </g>
</svg>
