<svg id="Icono_Medalla" data-name="Icono / Medalla" xmlns="http://www.w3.org/2000/svg" width="50" height="50" viewBox="0 0 50 50">
  <rect id="Rectángulo_577" data-name="Rectángulo 577" width="50" height="50" fill="none"/>
  <g id="noun_Award_988278" transform="translate(10 5)">
    <g id="Grupo_446" data-name="Grupo 446">
      <path id="Trazado_878" data-name="Trazado 878" d="M24.393,3.028h0a5.249,5.249,0,0,1,3.736,1.547,3.593,3.593,0,0,0,2.557,1.059,5.289,5.289,0,0,1,5.283,5.283,3.593,3.593,0,0,0,1.059,2.557,5.289,5.289,0,0,1,0,7.472A3.593,3.593,0,0,0,35.97,23.5a5.289,5.289,0,0,1-5.283,5.283,3.593,3.593,0,0,0-2.558,1.059,5.283,5.283,0,0,1-7.467,0l0,0A3.593,3.593,0,0,0,18.1,28.788,5.289,5.289,0,0,1,12.817,23.5a3.593,3.593,0,0,0-1.05-2.548l-.009-.009a5.29,5.29,0,0,1,0-7.472l.009-.009a3.593,3.593,0,0,0,1.05-2.548A5.289,5.289,0,0,1,18.1,5.635a3.593,3.593,0,0,0,2.557-1.059l.007-.007A5.248,5.248,0,0,1,24.393,3.028Zm0,26.7a3.593,3.593,0,0,0,2.557-1.059,5.248,5.248,0,0,1,3.736-1.547A3.621,3.621,0,0,0,34.3,23.5a5.249,5.249,0,0,1,1.547-3.736,3.621,3.621,0,0,0,0-5.115A5.249,5.249,0,0,1,34.3,10.918,3.621,3.621,0,0,0,30.687,7.3a5.249,5.249,0,0,1-3.736-1.547,3.616,3.616,0,0,0-5.115,0l-.005.005A5.249,5.249,0,0,1,18.1,7.3a3.621,3.621,0,0,0-3.617,3.617,5.249,5.249,0,0,1-1.547,3.736l-.009.008a3.621,3.621,0,0,0,0,5.1l.008.008A5.249,5.249,0,0,1,14.483,23.5,3.621,3.621,0,0,0,18.1,27.121a5.249,5.249,0,0,1,3.729,1.541l.007.007A3.593,3.593,0,0,0,24.393,29.728Z" transform="translate(-10.213 -3.028)" fill="#ca9e64"/>
      <path id="Elipse_42" data-name="Elipse 42" d="M7.453-.5A7.953,7.953,0,1,1-.5,7.453,7.962,7.962,0,0,1,7.453-.5Zm0,14.24A6.287,6.287,0,1,0,1.167,7.453,6.294,6.294,0,0,0,7.453,13.74Z" transform="translate(6.727 6.73)" fill="#ca9e64"/>
      <path id="Trazado_879" data-name="Trazado 879" d="M18.274,47.671a.833.833,0,0,1-.745-.459l-1.718-3.418-3.762.692a.833.833,0,0,1-.9-1.191l6.342-12.75a.833.833,0,1,1,1.492.742l-5.6,11.258,2.737-.5a.833.833,0,0,1,.9.445l1.25,2.487,5.987-12.036a.833.833,0,0,1,1.492.742L19.02,47.209A.83.83,0,0,1,18.274,47.671Z" transform="translate(-10.307 -6.004)" fill="#ca9e64"/>
      <path id="Trazado_880" data-name="Trazado 880" d="M33.628,47.671a.832.832,0,0,1-.746-.462L26.153,33.68a.833.833,0,0,1,1.492-.742l5.987,12.036,1.25-2.487a.833.833,0,0,1,.9-.445l2.737.5-5.6-11.258a.833.833,0,1,1,1.492-.742L40.749,43.3a.833.833,0,0,1-.9,1.191l-3.762-.692-1.718,3.418A.833.833,0,0,1,33.628,47.671Z" transform="translate(-11.958 -6.004)" fill="#ca9e64"/>
    </g>
  </g>
</svg>
