<svg id="Ilustracion_-_Historia" data-name="Ilustracion - Historia" xmlns="http://www.w3.org/2000/svg" xmlns:xlink="http://www.w3.org/1999/xlink" width="300" height="300" viewBox="0 0 300 300">
  <defs>
    <clipPath id="clip-path">
      <circle id="Elipse_41" data-name="Elipse 41" cx="56.295" cy="56.295" r="56.295" fill="#fff"/>
    </clipPath>
    <linearGradient id="linear-gradient" y1="0.5" x2="1" y2="0.5" gradientUnits="objectBoundingBox">
      <stop offset="0" stop-color="#fff"/>
      <stop offset="1" stop-color="#d8dee8"/>
    </linearGradient>
  </defs>
  <rect id="Rectángulo_385" data-name="Rectángulo 385" width="300" height="300" fill="none"/>
  <g id="Grupo_642" data-name="Grupo 642" transform="translate(850 491)">
    <g id="Grupo_466" data-name="Grupo 466" transform="translate(-822.001 -463)">
      <path id="Trazado_690" data-name="Trazado 690" d="M707.432,608.331a109.374,109.374,0,0,1-3.287,23.7c-.054.212-.109.422-.164.634-.225.853-.449,1.7-.692,2.546v0q-.828,2.731-1.842,5.426A78.372,78.372,0,0,1,689.06,662.38c-11.9,14.736-30.81,27.245-60.322,35.216-17.47,4.722-37.823,7.04-55.952,5.608a136.889,136.889,0,0,1-29.715-5.975A213.065,213.065,0,0,1,495.911,675.4c-15.379-9.45-21.506-22.2-23.673-36.615-.015-.109-.033-.219-.048-.331a96.226,96.226,0,0,1-.892-10.038c-.234-5.805-.07-11.8.2-17.886a121.922,121.922,0,0,0-.285-14.778c-.052-.671-.109-1.344-.173-2.015A174.77,174.77,0,0,0,468,574.055q-.778-3.742-1.678-7.444a79.468,79.468,0,0,1,12.229-64.224c13.17-18.991,33.981-32.2,57.718-36.643,39.99-7.477,80.559-2.543,80.559-2.543,51.8,5.38,78.821,55.4,86.434,97.8q.36,2,.662,3.981C705.914,577.991,707.972,593.021,707.432,608.331Z" transform="translate(-464.109 -461.604)" fill="#f4f7fa"/>
      <path id="Trazado_691" data-name="Trazado 691" d="M773.7,2016.214a78.377,78.377,0,0,1-12.387,21.737c-11.9,14.736-30.81,27.245-60.322,35.217-17.47,4.722-37.823,7.04-55.952,5.608-.416-.033-.835-.067-1.25-.106s-.838-.079-1.253-.121c-.492-.048-.983-.1-1.475-.161-.346-.036-.692-.079-1.038-.121-.313-.04-.628-.079-.941-.122-.176-.021-.352-.045-.528-.07-.31-.043-.619-.085-.929-.131-.194-.027-.391-.058-.589-.088-.44-.064-.88-.131-1.317-.2-.294-.046-.589-.094-.883-.143-.121-.021-.246-.04-.367-.064-.246-.04-.495-.082-.744-.128q-2.239-.391-4.476-.868c-.831-.173-1.66-.358-2.491-.549q-.737-.169-1.472-.346c-.231-.055-.461-.112-.692-.17q-3.632-.892-7.244-1.969c-.367-.109-.737-.219-1.1-.331-.306-.094-.616-.188-.922-.285a213.08,213.08,0,0,1-47.161-21.834c-15.379-9.45-21.506-22.2-23.673-36.615-.015-.109-.033-.219-.049-.331a96.244,96.244,0,0,1-.892-10.038c-.234-5.805-.07-11.8.2-17.886a121.93,121.93,0,0,0-.285-14.779c-.052-.671-.109-1.344-.173-2.015,23.524-1.223,66.382,1.724,101.871,32.673q2.189,1.907,4.339,3.963C689.419,2044.093,733.578,2010.466,773.7,2016.214Z" transform="translate(-536.357 -1837.175)" fill="#d8dee8"/>
      <path id="Trazado_692" data-name="Trazado 692" d="M1524.905,2359.243a78.379,78.379,0,0,1-12.387,21.737c-11.9,14.736-30.81,27.245-60.322,35.217-17.47,4.722-37.823,7.04-55.952,5.608-.416-.033-.834-.067-1.25-.106s-.838-.079-1.253-.121c-.492-.048-.983-.1-1.475-.161-.346-.036-.692-.079-1.038-.121-.312-.04-.628-.079-.941-.122-.176-.021-.352-.045-.528-.07-.31-.043-.619-.085-.929-.131-.194-.027-.391-.058-.589-.088-.44-.064-.88-.13-1.317-.2-.294-.045-.589-.094-.883-.142-.121-.021-.246-.04-.367-.064-.246-.04-.495-.082-.744-.128q-2.239-.391-4.476-.868c-.831-.176-1.66-.358-2.491-.549-.492-.112-.983-.228-1.472-.345-.23-.055-.461-.113-.692-.17q-3.632-.892-7.244-1.969c-.367-.109-.737-.219-1.1-.331-.306-.094-.616-.188-.922-.285,2.155-2.652,8.16-4.989,19.16-6.822,62.816-10.469,33.22-20.939,5-34.594-21.925-10.606-21.6-16.818,5.675-29.408q2.189,1.907,4.339,3.963C1440.629,2387.122,1484.788,2353.5,1524.905,2359.243Z" transform="translate(-1287.567 -2180.204)" fill="#d8dee8" opacity="0.4" style="mix-blend-mode: multiply;isolation: isolate"/>
      <g id="Grupo_453" data-name="Grupo 453" transform="translate(122.497 55.937)">
        <g id="Grupo_439" data-name="Grupo 439" transform="translate(35.053 108.187)">
          <g id="Grupo_438" data-name="Grupo 438">
            <path id="Trazado_693" data-name="Trazado 693" d="M2307.132,2337.272v.006a26.868,26.868,0,0,1-.6,3.208c-.121.5-.282,1.047-.449,1.615,0,0,0,0,0,.006a21.859,21.859,0,0,1-4.831,8.782c-5.116,5.359-10.208,56.483-10.208,56.483h-9.7a1.27,1.27,0,0,1-.031-.228c-.437-4.716-5.611-51.094-10.469-56.174a22.874,22.874,0,0,1-4.943-8.776c-.188-.6-.419-1.171-.546-1.7-.434-1.836-.7-3.11-.7-3.22v-.006l21.154.106Z" transform="translate(-2264.648 -2337.272)" fill="#97a6b7"/>
            <ellipse id="Elipse_39" data-name="Elipse 39" cx="4.857" cy="1.144" rx="4.857" ry="1.144" transform="translate(16.675 68.864)" fill="#97a6b7"/>
          </g>
          <path id="Trazado_694" data-name="Trazado 694" d="M2308.558,2337.272a31.773,31.773,0,0,1-.6,3.21c-.121.5-.282,1.049-.449,1.616a.067.067,0,0,0-.024.007,75.8,75.8,0,0,1-40.16.089c-.188-.6-.349-1.171-.476-1.7-.437-1.836-.619-3.11-.634-3.22l20.954.14,21.312-.146Z" transform="translate(-2266.073 -2337.272)" fill="#d8dee8" style="mix-blend-mode: multiply;isolation: isolate"/>
        </g>
        <g id="Grupo_452" data-name="Grupo 452">
          <g id="Grupo_451" data-name="Grupo 451">
            <circle id="Elipse_40" data-name="Elipse 40" cx="56.295" cy="56.295" r="56.295" fill="#fff"/>
            <g id="Grupo_450" data-name="Grupo 450" clip-path="url(#clip-path)">
              <g id="Grupo_449" data-name="Grupo 449" transform="translate(-14.187 -2.968)">
                <g id="Grupo_440" data-name="Grupo 440" transform="translate(11.504)">
                  <path id="Trazado_695" data-name="Trazado 695" d="M1841.74,1184.5a10.445,10.445,0,0,1-5.789,5.22c-2.255.672-3.237-.42-2.073-2.5a14.109,14.109,0,0,1,5.957-5.317C1841.911,1181.072,1842.719,1182.265,1841.74,1184.5Z" transform="translate(-1833.385 -1171.601)" fill="url(#linear-gradient)"/>
                  <path id="Trazado_696" data-name="Trazado 696" d="M1975.573,1141.751a8.385,8.385,0,0,1-5.4,5.244c-2.256.53-3.4-.83-2.464-3.1a10.473,10.473,0,0,1,5.531-5.341C1975.319,1137.9,1976.327,1139.365,1975.573,1141.751Z" transform="translate(-1955.658 -1132.15)" fill="url(#linear-gradient)"/>
                  <path id="Trazado_697" data-name="Trazado 697" d="M2109.1,1109.059a6.905,6.905,0,0,1-5.006,5.195c-2.256.389-3.568-1.206-2.855-3.62s3.029-4.813,5.1-5.292S2109.627,1106.557,2109.1,1109.059Z" transform="translate(-2077.624 -1101.908)" fill="url(#linear-gradient)"/>
                  <path id="Trazado_698" data-name="Trazado 698" d="M2242.288,1086.482a5.762,5.762,0,0,1-4.615,5.073c-2.257.247-3.732-1.55-3.246-4.07s2.6-4.865,4.677-5.17S2242.591,1083.906,2242.288,1086.482Z" transform="translate(-2199.251 -1080.941)" fill="url(#linear-gradient)"/>
                  <path id="Trazado_699" data-name="Trazado 699" d="M2375.1,1074.059c-.08,2.612-1.967,4.77-4.224,4.878s-3.9-1.861-3.637-4.448,2.175-4.845,4.251-4.975S2375.173,1071.449,2375.1,1074.059Z" transform="translate(-2320.497 -1069.284)" fill="url(#linear-gradient)"/>
                  <path id="Trazado_700" data-name="Trazado 700" d="M2507.5,1071.8c.148,2.605-1.575,4.644-3.833,4.61a4.42,4.42,0,0,1-4.029-4.753c.035-2.612,1.749-4.751,3.824-4.707S2507.35,1069.2,2507.5,1071.8Z" transform="translate(-2441.339 -1066.953)" fill="url(#linear-gradient)"/>
                  <path id="Trazado_701" data-name="Trazado 701" d="M2639.459,1079.716c.374,2.559-1.186,4.445-3.442,4.268s-4.227-2.385-4.42-4.984,1.322-4.584,3.4-4.366S2639.085,1077.159,2639.459,1079.716Z" transform="translate(-2561.738 -1073.947)" fill="url(#linear-gradient)"/>
                  <path id="Trazado_702" data-name="Trazado 702" d="M2770.95,1097.792c.6,2.473-.794,4.172-3.051,3.854a6.3,6.3,0,0,1-4.811-5.143c-.416-2.544.9-4.344,2.971-3.952S2770.352,1095.322,2770.95,1097.792Z" transform="translate(-2681.668 -1090.263)" fill="url(#linear-gradient)"/>
                  <path id="Trazado_703" data-name="Trazado 703" d="M2901.99,1126c.826,2.344-.4,3.827-2.659,3.367a7.592,7.592,0,0,1-5.2-5.228c-.641-2.449.468-4.032,2.544-3.464A9.212,9.212,0,0,1,2901.99,1126Z" transform="translate(-2801.146 -1115.873)" fill="url(#linear-gradient)"/>
                  <path id="Trazado_704" data-name="Trazado 704" d="M3032.6,1164.306c1.052,2.177-.012,3.408-2.268,2.806a9.317,9.317,0,0,1-5.593-5.241c-.866-2.314.041-3.646,2.118-2.9A12.053,12.053,0,0,1,3032.6,1164.306Z" transform="translate(-2920.192 -1150.729)" fill="url(#linear-gradient)"/>
                </g>
                <g id="Grupo_441" data-name="Grupo 441" transform="translate(12.826 13.633)">
                  <path id="Trazado_705" data-name="Trazado 705" d="M1857.265,1297.151a7.556,7.556,0,0,1-5.51,4.949c-2.427.433-3.842-.946-3.053-3.123a9.1,9.1,0,0,1,5.66-5.022C1856.655,1293.382,1857.914,1294.837,1857.265,1297.151Z" transform="translate(-1848.483 -1287.611)" fill="url(#linear-gradient)"/>
                  <path id="Trazado_706" data-name="Trazado 706" d="M2002.025,1268.01a6.607,6.607,0,0,1-5.22,5.008c-2.427.332-3.962-1.267-3.342-3.612a7.618,7.618,0,0,1,5.335-5.081C2001.09,1263.887,2002.5,1265.561,2002.025,1268.01Z" transform="translate(-1980.651 -1260.625)" fill="url(#linear-gradient)"/>
                  <path id="Trazado_707" data-name="Trazado 707" d="M2146.6,1246.664a5.833,5.833,0,0,1-4.932,4.994,3.224,3.224,0,0,1-3.631-4.027,6.5,6.5,0,0,1,5.011-5.067C2145.341,1242.26,2146.911,1244.12,2146.6,1246.664Z" transform="translate(-2112.634 -1240.802)" fill="url(#linear-gradient)"/>
                  <path id="Trazado_708" data-name="Trazado 708" d="M2290.977,1233.147a5.159,5.159,0,0,1-4.643,4.907,3.729,3.729,0,0,1-3.92-4.37,5.6,5.6,0,0,1,4.687-4.98C2289.394,1228.535,2291.119,1230.549,2290.977,1233.147Z" transform="translate(-2244.418 -1228.175)" fill="url(#linear-gradient)"/>
                  <path id="Trazado_709" data-name="Trazado 709" d="M2435.141,1227.474a4.552,4.552,0,0,1-4.354,4.747,4.269,4.269,0,0,1-4.209-4.64c.111-2.6,2.071-4.787,4.363-4.82S2435.113,1224.862,2435.141,1227.474Z" transform="translate(-2375.989 -1222.761)" fill="url(#linear-gradient)"/>
                  <path id="Trazado_710" data-name="Trazado 710" d="M2579.084,1229.65a4,4,0,0,1-4.065,4.514,4.848,4.848,0,0,1-4.5-4.836c-.058-2.611,1.746-4.688,4.038-4.587S2578.888,1227.064,2579.084,1229.65Z" transform="translate(-2507.341 -1224.564)" fill="url(#linear-gradient)"/>
                  <path id="Trazado_711" data-name="Trazado 711" d="M2722.791,1239.678a3.473,3.473,0,0,1-3.776,4.208,5.484,5.484,0,0,1-4.787-4.96c-.227-2.577,1.423-4.517,3.714-4.281A6.032,6.032,0,0,1,2722.791,1239.678Z" transform="translate(-2638.455 -1233.587)" fill="url(#linear-gradient)"/>
                  <path id="Trazado_712" data-name="Trazado 712" d="M2866.253,1257.542a2.983,2.983,0,0,1-3.487,3.829,6.2,6.2,0,0,1-5.076-5.01c-.4-2.5,1.1-4.272,3.389-3.9A7.027,7.027,0,0,1,2866.253,1257.542Z" transform="translate(-2769.324 -1249.816)" fill="url(#linear-gradient)"/>
                  <path id="Trazado_713" data-name="Trazado 713" d="M3009.482,1283.222c.7,2.265-.771,3.759-3.2,3.376a7.053,7.053,0,0,1-5.365-4.988c-.565-2.387.772-3.955,3.065-3.449A8.3,8.3,0,0,1,3009.482,1283.222Z" transform="translate(-2899.962 -1273.227)" fill="url(#linear-gradient)"/>
                  <path id="Trazado_714" data-name="Trazado 714" d="M3152.474,1316.67c.874,2.078-.482,3.336-2.909,2.851a8.133,8.133,0,0,1-5.654-4.892c-.734-2.232.448-3.565,2.741-2.924A10.071,10.071,0,0,1,3152.474,1316.67Z" transform="translate(-3030.361 -1303.776)" fill="url(#linear-gradient)"/>
                </g>
                <g id="Grupo_442" data-name="Grupo 442" transform="translate(2.884 27.267)">
                  <path id="Trazado_715" data-name="Trazado 715" d="M1744.048,1444.513a6.492,6.492,0,0,1-5.419,4.564c-2.543.3-4.227-1.126-3.645-3.2s3.136-4.159,5.587-4.612S1744.536,1442.281,1744.048,1444.513Z" transform="translate(-1734.869 -1435.701)" fill="url(#linear-gradient)"/>
                  <path id="Trazado_716" data-name="Trazado 716" d="M1896.787,1421.314a6.011,6.011,0,0,1-5.232,4.731c-2.542.235-4.3-1.392-3.832-3.657a6.785,6.785,0,0,1,5.365-4.78A3.057,3.057,0,0,1,1896.787,1421.314Z" transform="translate(-1874.279 -1414.148)" fill="url(#linear-gradient)"/>
                  <path id="Trazado_717" data-name="Trazado 717" d="M2049.441,1403.58a5.6,5.6,0,0,1-5.045,4.825c-2.543.172-4.375-1.625-4.018-4.038a6.137,6.137,0,0,1,5.143-4.874A3.486,3.486,0,0,1,2049.441,1403.58Z" transform="translate(-2013.605 -1397.64)" fill="url(#linear-gradient)"/>
                  <path id="Trazado_718" data-name="Trazado 718" d="M2202.014,1391.335a5.214,5.214,0,0,1-4.858,4.847,3.9,3.9,0,0,1-4.205-4.345,5.583,5.583,0,0,1,4.921-4.9A3.926,3.926,0,0,1,2202.014,1391.335Z" transform="translate(-2152.848 -1386.2)" fill="url(#linear-gradient)"/>
                  <path id="Trazado_719" data-name="Trazado 719" d="M2354.5,1384.593a4.842,4.842,0,0,1-4.672,4.795,4.281,4.281,0,0,1-4.392-4.58,5.081,5.081,0,0,1,4.7-4.843A4.377,4.377,0,0,1,2354.5,1384.593Z" transform="translate(-2292.002 -1379.84)" fill="url(#linear-gradient)"/>
                  <path id="Trazado_720" data-name="Trazado 720" d="M2506.886,1383.359a4.468,4.468,0,0,1-4.485,4.67,4.656,4.656,0,0,1-4.579-4.741,4.608,4.608,0,0,1,4.476-4.719A4.842,4.842,0,0,1,2506.886,1383.359Z" transform="translate(-2431.063 -1378.569)" fill="url(#linear-gradient)"/>
                  <path id="Trazado_721" data-name="Trazado 721" d="M2659.18,1387.634a4.092,4.092,0,0,1-4.3,4.472,5.026,5.026,0,0,1-4.765-4.83,4.149,4.149,0,0,1,4.254-4.521A5.328,5.328,0,0,1,2659.18,1387.634Z" transform="translate(-2570.027 -1382.384)" fill="url(#linear-gradient)"/>
                  <path id="Trazado_722" data-name="Trazado 722" d="M2811.371,1397.415a3.708,3.708,0,0,1-4.112,4.2,5.4,5.4,0,0,1-4.952-4.845,3.7,3.7,0,0,1,4.032-4.249A5.85,5.85,0,0,1,2811.371,1397.415Z" transform="translate(-2708.89 -1391.285)" fill="url(#linear-gradient)"/>
                  <path id="Trazado_723" data-name="Trazado 723" d="M2963.463,1412.692c.412,2.344-1.383,4.06-3.925,3.857a5.8,5.8,0,0,1-5.138-4.787,3.269,3.269,0,0,1,3.81-3.905A6.445,6.445,0,0,1,2963.463,1412.692Z" transform="translate(-2847.653 -1405.261)" fill="url(#linear-gradient)"/>
                  <path id="Trazado_724" data-name="Trazado 724" d="M3115.45,1433.45c.525,2.177-1.2,3.705-3.739,3.439a6.239,6.239,0,0,1-5.325-4.657c-.433-2.314,1.133-3.893,3.587-3.488A7.165,7.165,0,0,1,3115.45,1433.45Z" transform="translate(-2986.311 -1424.297)" fill="url(#linear-gradient)"/>
                </g>
                <g id="Grupo_443" data-name="Grupo 443" transform="translate(7.612 40.9)">
                  <path id="Trazado_725" data-name="Trazado 725" d="M1798.287,1567.1a5.18,5.18,0,0,1-5.041,4.365c-2.6.1-4.585-1.579-4.323-3.756s2.635-4.151,5.192-4.389S1798.5,1564.788,1798.287,1567.1Z" transform="translate(-1788.9 -1560.769)" fill="url(#linear-gradient)"/>
                  <path id="Trazado_726" data-name="Trazado 726" d="M1955.757,1555.393a5.089,5.089,0,0,1-4.957,4.567c-2.6.075-4.614-1.757-4.408-4.1a5.5,5.5,0,0,1,5.072-4.591A3.834,3.834,0,0,1,1955.757,1555.393Z" transform="translate(-1932.598 -1549.778)" fill="url(#linear-gradient)"/>
                  <path id="Trazado_727" data-name="Trazado 727" d="M2113.207,1546.82a4.989,4.989,0,0,1-4.872,4.7,4.212,4.212,0,0,1-4.492-4.374,5.273,5.273,0,0,1,4.952-4.72A4.139,4.139,0,0,1,2113.207,1546.82Z" transform="translate(-2076.277 -1541.712)" fill="url(#linear-gradient)"/>
                  <path id="Trazado_728" data-name="Trazado 728" d="M2270.633,1541.387a4.866,4.866,0,0,1-4.788,4.752,4.435,4.435,0,0,1-4.576-4.573,5.051,5.051,0,0,1,4.832-4.777A4.425,4.425,0,0,1,2270.633,1541.387Z" transform="translate(-2219.933 -1536.576)" fill="url(#linear-gradient)"/>
                  <path id="Trazado_729" data-name="Trazado 729" d="M2428.038,1539.1a4.716,4.716,0,0,1-4.7,4.736,4.63,4.63,0,0,1-4.661-4.7,4.816,4.816,0,0,1,4.712-4.76A4.691,4.691,0,0,1,2428.038,1539.1Z" transform="translate(-2363.567 -1534.375)" fill="url(#linear-gradient)"/>
                  <path id="Trazado_730" data-name="Trazado 730" d="M2585.42,1539.957a4.537,4.537,0,0,1-4.619,4.646,4.793,4.793,0,0,1-4.746-4.753,4.561,4.561,0,0,1,4.592-4.67A4.935,4.935,0,0,1,2585.42,1539.957Z" transform="translate(-2507.178 -1535.109)" fill="url(#linear-gradient)"/>
                  <path id="Trazado_731" data-name="Trazado 731" d="M2742.779,1543.961a4.328,4.328,0,0,1-4.534,4.483,4.93,4.93,0,0,1-4.83-4.734,4.284,4.284,0,0,1,4.472-4.507A5.164,5.164,0,0,1,2742.779,1543.961Z" transform="translate(-2650.767 -1538.778)" fill="url(#linear-gradient)"/>
                  <path id="Trazado_732" data-name="Trazado 732" d="M2900.112,1551.108a4.09,4.09,0,0,1-4.45,4.247,5.039,5.039,0,0,1-4.914-4.64,3.988,3.988,0,0,1,4.352-4.271A5.384,5.384,0,0,1,2900.112,1551.108Z" transform="translate(-2794.329 -1545.38)" fill="url(#linear-gradient)"/>
                  <path id="Trazado_733" data-name="Trazado 733" d="M3057.422,1561.393c.235,2.265-1.763,4.024-4.365,3.938a5.135,5.135,0,0,1-5-4.475,3.675,3.675,0,0,1,4.232-3.962C3054.847,1557.1,3057.188,1559.129,3057.422,1561.393Z" transform="translate(-2937.868 -1554.909)" fill="url(#linear-gradient)"/>
                  <path id="Trazado_734" data-name="Trazado 734" d="M3214.7,1574.808c.291,2.077-1.678,3.666-4.281,3.556a5.229,5.229,0,0,1-5.083-4.236c-.244-2.232,1.553-3.845,4.113-3.58S3214.413,1572.731,3214.7,1574.808Z" transform="translate(-3081.378 -1567.357)" fill="url(#linear-gradient)"/>
                </g>
                <g id="Grupo_444" data-name="Grupo 444" transform="translate(0 54.533)">
                  <path id="Trazado_735" data-name="Trazado 735" d="M1711.372,1703.457c0,2.233-2.038,3.985-4.648,3.908s-4.818-1.83-4.817-3.908,2.21-3.83,4.817-3.908S1711.37,1701.225,1711.372,1703.457Z" transform="translate(-1701.908 -1698.727)" fill="url(#linear-gradient)"/>
                  <path id="Trazado_736" data-name="Trazado 736" d="M1870.434,1700.23a4.364,4.364,0,0,1-4.666,4.219c-2.608-.062-4.8-1.953-4.8-4.219s2.19-4.157,4.8-4.218A4.364,4.364,0,0,1,1870.434,1700.23Z" transform="translate(-1847.052 -1695.5)" fill="url(#linear-gradient)"/>
                  <path id="Trazado_737" data-name="Trazado 737" d="M2029.5,1697.761a4.507,4.507,0,0,1-4.683,4.456,4.467,4.467,0,1,1,0-8.912A4.506,4.506,0,0,1,2029.5,1697.761Z" transform="translate(-1992.196 -1693.031)" fill="url(#linear-gradient)"/>
                  <path id="Trazado_738" data-name="Trazado 738" d="M2188.558,1696.051a4.62,4.62,0,0,1-4.7,4.62,4.622,4.622,0,1,1,0-9.241A4.62,4.62,0,0,1,2188.558,1696.051Z" transform="translate(-2137.34 -1691.321)" fill="url(#linear-gradient)"/>
                  <path id="Trazado_739" data-name="Trazado 739" d="M2347.62,1695.1a4.7,4.7,0,0,1-4.719,4.712,4.712,4.712,0,1,1,0-9.423A4.7,4.7,0,0,1,2347.62,1695.1Z" transform="translate(-2282.483 -1690.371)" fill="url(#linear-gradient)"/>
                  <path id="Trazado_740" data-name="Trazado 740" d="M2506.682,1694.911a4.732,4.732,0,1,1-4.737-4.73A4.746,4.746,0,0,1,2506.682,1694.911Z" transform="translate(-2427.626 -1690.181)" fill="url(#linear-gradient)"/>
                  <path id="Trazado_741" data-name="Trazado 741" d="M2665.744,1695.481a4.756,4.756,0,0,1-4.755,4.675,4.675,4.675,0,1,1,0-9.35A4.756,4.756,0,0,1,2665.744,1695.481Z" transform="translate(-2572.77 -1690.752)" fill="url(#linear-gradient)"/>
                  <path id="Trazado_742" data-name="Trazado 742" d="M2824.805,1696.812a4.732,4.732,0,0,1-4.772,4.547,4.549,4.549,0,1,1,0-9.094A4.732,4.732,0,0,1,2824.805,1696.812Z" transform="translate(-2717.914 -1692.082)" fill="url(#linear-gradient)"/>
                  <path id="Trazado_743" data-name="Trazado 743" d="M2983.867,1698.9a4.683,4.683,0,0,1-4.79,4.346,4.358,4.358,0,1,1,0-8.693A4.683,4.683,0,0,1,2983.867,1698.9Z" transform="translate(-2863.058 -1694.172)" fill="url(#linear-gradient)"/>
                  <path id="Trazado_744" data-name="Trazado 744" d="M3142.929,1701.749c0,2.177-2.2,4-4.807,4.072a4.109,4.109,0,1,1,0-8.145C3140.729,1697.746,3142.93,1699.572,3142.929,1701.749Z" transform="translate(-3008.202 -1697.019)" fill="url(#linear-gradient)"/>
                </g>
                <g id="Grupo_445" data-name="Grupo 445" transform="translate(7.612 66.614)">
                  <path id="Trazado_745" data-name="Trazado 745" d="M1798.286,1836.163c.215,2.315-1.614,4.017-4.172,3.78s-4.929-2.212-5.192-4.389,1.72-3.854,4.323-3.756A5.18,5.18,0,0,1,1798.286,1836.163Z" transform="translate(-1788.899 -1831.484)" fill="url(#linear-gradient)"/>
                  <path id="Trazado_746" data-name="Trazado 746" d="M1955.757,1842.279a3.834,3.834,0,0,1-4.292,4.126,5.5,5.5,0,0,1-5.072-4.591c-.207-2.344,1.8-4.176,4.407-4.1A5.088,5.088,0,0,1,1955.757,1842.279Z" transform="translate(-1932.599 -1836.882)" fill="url(#linear-gradient)"/>
                  <path id="Trazado_747" data-name="Trazado 747" d="M2113.207,1846.744a4.139,4.139,0,0,1-4.412,4.4,5.274,5.274,0,0,1-4.952-4.721,4.212,4.212,0,0,1,4.492-4.374A4.987,4.987,0,0,1,2113.207,1846.744Z" transform="translate(-2076.277 -1840.839)" fill="url(#linear-gradient)"/>
                  <path id="Trazado_748" data-name="Trazado 748" d="M2270.633,1849.558a4.425,4.425,0,0,1-4.532,4.6,5.051,5.051,0,0,1-4.832-4.777,4.435,4.435,0,0,1,4.576-4.573A4.865,4.865,0,0,1,2270.633,1849.558Z" transform="translate(-2219.933 -1843.356)" fill="url(#linear-gradient)"/>
                  <path id="Trazado_749" data-name="Trazado 749" d="M2428.038,1850.723a4.691,4.691,0,0,1-4.652,4.724,4.816,4.816,0,0,1-4.712-4.76,4.63,4.63,0,0,1,4.661-4.7A4.716,4.716,0,0,1,2428.038,1850.723Z" transform="translate(-2363.567 -1844.434)" fill="url(#linear-gradient)"/>
                  <path id="Trazado_750" data-name="Trazado 750" d="M2585.42,1850.239a4.936,4.936,0,0,1-4.772,4.777,4.561,4.561,0,0,1-4.592-4.67,4.793,4.793,0,0,1,4.746-4.753A4.536,4.536,0,0,1,2585.42,1850.239Z" transform="translate(-2507.178 -1844.075)" fill="url(#linear-gradient)"/>
                  <path id="Trazado_751" data-name="Trazado 751" d="M2742.78,1848.106a5.164,5.164,0,0,1-4.892,4.758,4.284,4.284,0,0,1-4.472-4.507,4.929,4.929,0,0,1,4.83-4.733A4.327,4.327,0,0,1,2742.78,1848.106Z" transform="translate(-2650.767 -1842.277)" fill="url(#linear-gradient)"/>
                  <path id="Trazado_752" data-name="Trazado 752" d="M2900.113,1844.325a5.385,5.385,0,0,1-5.012,4.665,3.988,3.988,0,0,1-4.352-4.271,5.04,5.04,0,0,1,4.914-4.641A4.091,4.091,0,0,1,2900.113,1844.325Z" transform="translate(-2794.329 -1839.041)" fill="url(#linear-gradient)"/>
                  <path id="Trazado_753" data-name="Trazado 753" d="M3057.422,1838.891c-.234,2.265-2.575,4.289-5.132,4.5a3.675,3.675,0,0,1-4.232-3.962,5.134,5.134,0,0,1,5-4.475C3055.66,1834.867,3057.657,1836.625,3057.422,1838.891Z" transform="translate(-2937.868 -1834.364)" fill="url(#linear-gradient)"/>
                  <path id="Trazado_754" data-name="Trazado 754" d="M3214.7,1831.8c-.29,2.078-2.695,3.995-5.252,4.26s-4.356-1.348-4.112-3.58a5.229,5.229,0,0,1,5.083-4.236C3213.026,1828.139,3215,1829.726,3214.7,1831.8Z" transform="translate(-3081.38 -1828.243)" fill="url(#linear-gradient)"/>
                </g>
                <g id="Grupo_446" data-name="Grupo 446" transform="translate(2.884 77.844)">
                  <path id="Trazado_755" data-name="Trazado 755" d="M1744.048,1961.19c.489,2.232-1.023,3.705-3.477,3.252s-5.006-2.536-5.587-4.613,1.1-3.5,3.645-3.2A6.491,6.491,0,0,1,1744.048,1961.19Z" transform="translate(-1734.869 -1956.587)" fill="url(#linear-gradient)"/>
                  <path id="Trazado_756" data-name="Trazado 756" d="M1896.785,1978.439a3.057,3.057,0,0,1-3.7,3.706,6.787,6.787,0,0,1-5.365-4.78c-.469-2.266,1.29-3.892,3.832-3.657A6.009,6.009,0,0,1,1896.785,1978.439Z" transform="translate(-1874.278 -1972.19)" fill="url(#linear-gradient)"/>
                  <path id="Trazado_757" data-name="Trazado 757" d="M2049.441,1991.58a3.486,3.486,0,0,1-3.921,4.086,6.137,6.137,0,0,1-5.143-4.874c-.357-2.413,1.476-4.21,4.019-4.038A5.6,5.6,0,0,1,2049.441,1991.58Z" transform="translate(-2013.605 -1984.104)" fill="url(#linear-gradient)"/>
                  <path id="Trazado_758" data-name="Trazado 758" d="M2202.014,2000.625a3.926,3.926,0,0,1-4.143,4.394,5.583,5.583,0,0,1-4.921-4.9,3.9,3.9,0,0,1,4.205-4.345A5.214,5.214,0,0,1,2202.014,2000.625Z" transform="translate(-2152.849 -1992.346)" fill="url(#linear-gradient)"/>
                  <path id="Trazado_759" data-name="Trazado 759" d="M2354.5,2005.585a4.377,4.377,0,0,1-4.365,4.629,5.081,5.081,0,0,1-4.7-4.844,4.28,4.28,0,0,1,4.392-4.58A4.841,4.841,0,0,1,2354.5,2005.585Z" transform="translate(-2292.003 -1996.922)" fill="url(#linear-gradient)"/>
                  <path id="Trazado_760" data-name="Trazado 760" d="M2506.887,2006.461a4.842,4.842,0,0,1-4.588,4.79,4.607,4.607,0,0,1-4.476-4.719,4.656,4.656,0,0,1,4.579-4.741A4.469,4.469,0,0,1,2506.887,2006.461Z" transform="translate(-2431.063 -1997.836)" fill="url(#linear-gradient)"/>
                  <path id="Trazado_761" data-name="Trazado 761" d="M2659.18,2003.257a5.327,5.327,0,0,1-4.81,4.879,4.15,4.15,0,0,1-4.254-4.52,5.027,5.027,0,0,1,4.765-4.83A4.091,4.091,0,0,1,2659.18,2003.257Z" transform="translate(-2570.028 -1995.091)" fill="url(#linear-gradient)"/>
                  <path id="Trazado_762" data-name="Trazado 762" d="M2811.372,1995.969a5.853,5.853,0,0,1-5.032,4.894,3.7,3.7,0,0,1-4.032-4.25,5.4,5.4,0,0,1,4.952-4.845A3.708,3.708,0,0,1,2811.372,1995.969Z" transform="translate(-2708.891 -1988.684)" fill="url(#linear-gradient)"/>
                  <path id="Trazado_763" data-name="Trazado 763" d="M2963.46,1984.592a6.446,6.446,0,0,1-5.254,4.836,3.269,3.269,0,0,1-3.809-3.905,5.8,5.8,0,0,1,5.138-4.787C2962.077,1980.532,2963.873,1982.247,2963.46,1984.592Z" transform="translate(-2847.65 -1978.607)" fill="url(#linear-gradient)"/>
                  <path id="Trazado_764" data-name="Trazado 764" d="M3115.45,1969.112a7.168,7.168,0,0,1-5.476,4.705c-2.453.406-4.02-1.174-3.587-3.488a6.24,6.24,0,0,1,5.325-4.657C3114.254,1965.406,3115.977,1966.935,3115.45,1969.112Z" transform="translate(-2986.311 -1964.85)" fill="url(#linear-gradient)"/>
                </g>
                <g id="Grupo_447" data-name="Grupo 447" transform="translate(12.825 89.044)">
                  <path id="Trazado_765" data-name="Trazado 765" d="M1857.264,2104.25c.649,2.314-.61,3.77-2.9,3.2a9.1,9.1,0,0,1-5.66-5.022c-.789-2.177.627-3.557,3.053-3.123A7.555,7.555,0,0,1,1857.264,2104.25Z" transform="translate(-1848.482 -2097.94)" fill="url(#linear-gradient)"/>
                  <path id="Trazado_766" data-name="Trazado 766" d="M2002.025,2128.631c.48,2.449-.934,4.123-3.227,3.685a7.618,7.618,0,0,1-5.335-5.081c-.62-2.345.914-3.943,3.342-3.612A6.609,6.609,0,0,1,2002.025,2128.631Z" transform="translate(-1980.65 -2120.167)" fill="url(#linear-gradient)"/>
                  <path id="Trazado_767" data-name="Trazado 767" d="M2146.6,2146.422c.311,2.544-1.261,4.4-3.552,4.1a6.5,6.5,0,0,1-5.011-5.067,3.224,3.224,0,0,1,3.631-4.028A5.831,5.831,0,0,1,2146.6,2146.422Z" transform="translate(-2112.634 -2136.435)" fill="url(#linear-gradient)"/>
                  <path id="Trazado_768" data-name="Trazado 768" d="M2290.975,2157.655c.142,2.6-1.583,4.612-3.876,4.443a5.6,5.6,0,0,1-4.687-4.98,3.729,3.729,0,0,1,3.92-4.37A5.158,5.158,0,0,1,2290.975,2157.655Z" transform="translate(-2244.416 -2146.778)" fill="url(#linear-gradient)"/>
                  <path id="Trazado_769" data-name="Trazado 769" d="M2435.141,2162.342c-.027,2.612-1.908,4.746-4.2,4.712s-4.252-2.216-4.363-4.82a4.269,4.269,0,0,1,4.209-4.64A4.553,4.553,0,0,1,2435.141,2162.342Z" transform="translate(-2375.99 -2151.206)" fill="url(#linear-gradient)"/>
                  <path id="Trazado_770" data-name="Trazado 770" d="M2579.084,2160.494c-.2,2.586-2.233,4.808-4.524,4.909s-4.1-1.977-4.038-4.587a4.847,4.847,0,0,1,4.5-4.836A3.993,3.993,0,0,1,2579.084,2160.494Z" transform="translate(-2507.341 -2149.731)" fill="url(#linear-gradient)"/>
                  <path id="Trazado_771" data-name="Trazado 771" d="M2722.792,2152.105a6.034,6.034,0,0,1-4.849,5.033c-2.292.236-3.94-1.7-3.714-4.281a5.483,5.483,0,0,1,4.787-4.959A3.472,3.472,0,0,1,2722.792,2152.105Z" transform="translate(-2638.456 -2142.347)" fill="url(#linear-gradient)"/>
                  <path id="Trazado_772" data-name="Trazado 772" d="M2866.257,2137.166a7.025,7.025,0,0,1-5.173,5.083c-2.292.372-3.785-1.4-3.39-3.9a6.2,6.2,0,0,1,5.076-5.01A2.983,2.983,0,0,1,2866.257,2137.166Z" transform="translate(-2769.329 -2129.043)" fill="url(#linear-gradient)"/>
                  <path id="Trazado_773" data-name="Trazado 773" d="M3009.482,2115.656a8.3,8.3,0,0,1-5.5,5.061c-2.293.506-3.63-1.063-3.065-3.449a7.055,7.055,0,0,1,5.365-4.988C3008.711,2111.9,3010.187,2113.39,3009.482,2115.656Z" transform="translate(-2899.962 -2109.801)" fill="url(#linear-gradient)"/>
                  <path id="Trazado_774" data-name="Trazado 774" d="M3152.474,2087.534a10.07,10.07,0,0,1-5.822,4.965c-2.293.641-3.475-.692-2.741-2.924a8.132,8.132,0,0,1,5.654-4.892C3151.991,2084.2,3153.347,2085.455,3152.474,2087.534Z" transform="translate(-3030.361 -2084.579)" fill="url(#linear-gradient)"/>
                </g>
                <g id="Grupo_448" data-name="Grupo 448" transform="translate(11.504 100.214)">
                  <path id="Trazado_775" data-name="Trazado 775" d="M1841.735,2217.651c.979,2.231.172,3.426-1.9,2.6a14.11,14.11,0,0,1-5.957-5.317c-1.165-2.078-.183-3.172,2.073-2.5A10.447,10.447,0,0,1,1841.735,2217.651Z" transform="translate(-1833.38 -2212.233)" fill="url(#linear-gradient)"/>
                  <path id="Trazado_776" data-name="Trazado 776" d="M1975.573,2255.909c.754,2.387-.256,3.847-2.331,3.193a10.477,10.477,0,0,1-5.531-5.341c-.938-2.267.208-3.627,2.464-3.1A8.386,8.386,0,0,1,1975.573,2255.909Z" transform="translate(-1955.657 -2247.198)" fill="url(#linear-gradient)"/>
                  <path id="Trazado_777" data-name="Trazado 777" d="M2109.1,2285.02c.528,2.5-.682,4.2-2.758,3.717s-4.392-2.88-5.1-5.292.6-4.009,2.855-3.62A6.906,6.906,0,0,1,2109.1,2285.02Z" transform="translate(-2077.624 -2273.857)" fill="url(#linear-gradient)"/>
                  <path id="Trazado_778" data-name="Trazado 778" d="M2242.287,2305.052c.3,2.576-1.108,4.473-3.185,4.167s-4.191-2.651-4.677-5.17.989-4.317,3.246-4.07A5.764,5.764,0,0,1,2242.287,2305.052Z" transform="translate(-2199.248 -2292.281)" fill="url(#linear-gradient)"/>
                  <path id="Trazado_779" data-name="Trazado 779" d="M2375.1,2316.041c.076,2.61-1.536,4.677-3.611,4.546s-3.989-2.39-4.25-4.975,1.38-4.553,3.637-4.448S2375.017,2313.429,2375.1,2316.041Z" transform="translate(-2320.497 -2302.503)" fill="url(#linear-gradient)"/>
                  <path id="Trazado_780" data-name="Trazado 780" d="M2507.5,2318.008c-.148,2.6-1.962,4.807-4.037,4.85s-3.79-2.095-3.824-4.707a4.421,4.421,0,0,1,4.029-4.753C2505.923,2313.364,2507.646,2315.4,2507.5,2318.008Z" transform="translate(-2441.338 -2304.546)" fill="url(#linear-gradient)"/>
                  <path id="Trazado_781" data-name="Trazado 781" d="M2639.459,2310.958c-.374,2.557-2.389,4.864-4.464,5.082s-3.588-1.768-3.4-4.366,2.163-4.806,4.42-4.984S2639.833,2308.4,2639.459,2310.958Z" transform="translate(-2561.738 -2298.414)" fill="url(#linear-gradient)"/>
                  <path id="Trazado_782" data-name="Trazado 782" d="M2770.951,2294.879c-.6,2.47-2.817,4.848-4.891,5.24s-3.386-1.407-2.971-3.951a6.3,6.3,0,0,1,4.811-5.143C2770.157,2290.707,2771.55,2292.406,2770.951,2294.879Z" transform="translate(-2681.669 -2284.096)" fill="url(#linear-gradient)"/>
                  <path id="Trazado_783" data-name="Trazado 783" d="M2901.988,2269.741a9.216,9.216,0,0,1-5.317,5.326c-2.077.567-3.185-1.015-2.544-3.464a7.593,7.593,0,0,1,5.2-5.229C2901.585,2265.915,2902.813,2267.4,2901.988,2269.741Z" transform="translate(-2801.144 -2261.561)" fill="url(#linear-gradient)"/>
                  <path id="Trazado_784" data-name="Trazado 784" d="M3032.6,2235.495a12.052,12.052,0,0,1-5.744,5.338c-2.077.742-2.984-.59-2.118-2.9a9.318,9.318,0,0,1,5.593-5.241C3032.583,2232.086,3033.648,2233.317,3032.6,2235.495Z" transform="translate(-2920.191 -2230.76)" fill="url(#linear-gradient)"/>
                </g>
              </g>
            </g>
          </g>
          <path id="Trazado_785" data-name="Trazado 785" d="M1930.052,1404.065a56.321,56.321,0,0,1-52.612-76.355,56.3,56.3,0,1,0,95.513,56.507A56.169,56.169,0,0,1,1930.052,1404.065Z" transform="translate(-1864.046 -1307.861)" fill="#bfc8d6" opacity="0.3" style="mix-blend-mode: multiply;isolation: isolate"/>
        </g>
      </g>
      <g id="Grupo_462" data-name="Grupo 462" transform="translate(13.388 12.46)">
        <path id="Trazado_786" data-name="Trazado 786" d="M1357.2,3098.816s-1.492,7.764,1.012,8.219,14.187,4.855,12.063,1.593-7.51-6.145-7.207-8.648S1357.2,3098.816,1357.2,3098.816Z" transform="translate(-1292.038 -2880.189)" fill="#4446ea"/>
        <path id="Trazado_787" data-name="Trazado 787" d="M1269.625,2197.6c-1.517,3.438-7.79,1.011-7.79,1.011s0-.009-.009-.024c-.246-.665-5.435-14.715-4.643-21.825.807-7.283-1.417-18.207-3.238-21.849s0-33.584,0-33.584a60.252,60.252,0,0,1,4.607-5.729c3.757-4.079,8.709-7.92,10.415-2.261,2.883,9.559-.252,45.115,1.366,48.453S1271.142,2194.156,1269.625,2197.6Z" transform="translate(-1197.483 -1978.665)" fill="#1a0f91"/>
        <path id="Trazado_788" data-name="Trazado 788" d="M1263.334,2240.379a58.142,58.142,0,0,0-1.508,11.507c-.246-.665-5.435-14.715-4.643-21.825.807-7.283-1.417-18.208-3.238-21.849s0-33.583,0-33.583a60.237,60.237,0,0,1,4.607-5.729,15.791,15.791,0,0,1,5.283,1.988,10.226,10.226,0,0,1,1.994,7.8c-.467,2.516-2.018,4.37-3.338,6.47a12.98,12.98,0,0,0-1.857,6.855,41.608,41.608,0,0,0,.838,8.4c1.189,6.691,3.86,12.958,5.223,19.585C1268.126,2226.984,1264.9,2233.718,1263.334,2240.379Z" transform="translate(-1197.483 -2031.968)" fill="#100972" opacity="0.1" style="mix-blend-mode: multiply;isolation: isolate"/>
        <path id="Trazado_789" data-name="Trazado 789" d="M621.527,3102.668c-.178.041-5.563.809-4.2,2.327s2.984,10.216,7.485,11.127,2.933-1.3,1.113-2.706-1.707-6.335-1.138-6.638S623.841,3102.142,621.527,3102.668Z" transform="translate(-617.108 -2883.99)" fill="#4446ea"/>
        <path id="Trazado_790" data-name="Trazado 790" d="M687.324,1982.375a35.1,35.1,0,0,0-8.092,26.521,86.136,86.136,0,0,1-3.035,31.012s-25.086,26.307-26.5,36.359c0,0-.1,6.47,5.968,5.507s29.739-28.553,35.2-35.771,12.138-38.338,18.663-40.263,8.649-.963,9.407-6.577-1.062-16.041-1.062-16.041Z" transform="translate(-646.843 -1861.765)" fill="#0c0765"/>
        <path id="Trazado_791" data-name="Trazado 791" d="M1547.1,1274.436s-.552,1.466-1.511,3.678c-2.215,5.1-6.606,14.168-11.407,18.3-6.882,5.933-29.9-11.977-29.9-11.977l5.617-15.382s20.022,16.626,20.39,16.626a106,106,0,0,0,8.348-10.582c.188-.279.361-.546.522-.8a4.986,4.986,0,0,0,1.023-2.258,2.194,2.194,0,0,1-.042-.282,3.391,3.391,0,0,1,1.2-3,1.572,1.572,0,0,1,.355-.212c.91-.389.855-2.479,2.218-4.054s4.855.576,7.759,3.654S1547.1,1274.436,1547.1,1274.436Z" transform="translate(-1426.651 -1206.217)" fill="#f7d2a1"/>
        <path id="Trazado_792" data-name="Trazado 792" d="M1905.36,1274.436s-.552,1.466-1.511,3.678l-6.77-2.916-.182-.1c.188-.279.361-.546.522-.8a4.983,4.983,0,0,0,1.023-2.258,2.194,2.194,0,0,1-.042-.282,3.39,3.39,0,0,1,1.2-3,1.572,1.572,0,0,1,.355-.212c.91-.389.856-2.479,2.218-4.054s4.855.576,7.759,3.654S1905.36,1274.436,1905.36,1274.436Z" transform="translate(-1784.913 -1206.217)" fill="#d8dee8"/>
        <path id="Trazado_793" data-name="Trazado 793" d="M1375.415,1225.127s13.259,3.955,19.22,9.168l7.152,4.644s-5.293,16.971-8.75,17.095-15.048-7.356-15.048-7.356Z" transform="translate(-1309.062 -1170.777)" fill="#91b3fa"/>
        <path id="Trazado_794" data-name="Trazado 794" d="M1927.738,1269.892a5.7,5.7,0,0,0,1.67,5.549c2.6,2.368,3.766,1.991,4.877,1S1930.018,1269.59,1927.738,1269.892Z" transform="translate(-1812.908 -1211.615)" fill="#d8dee8"/>
        <path id="Trazado_795" data-name="Trazado 795" d="M970.049,1225.533c-4.9,18.781-3.805,31.247-2.6,37.3.137.7.276,1.308.41,1.833a2.341,2.341,0,0,1-1.918,2.886c-8.515,1.3-34.6,4.37-36.145-6.664-1.4-9.95-9.377-36.542-8.2-52.608.385-5.25,1.748-9.374,4.634-11.428,0,0,6.088-3.963,19.755-4.406S977.257,1197.918,970.049,1225.533Z" transform="translate(-894.845 -1140.933)" fill="#91b3fa"/>
        <path id="Trazado_796" data-name="Trazado 796" d="M1145.76,1105.808c1.169-1.865,3.088-4.968,2.777-6.576l4.758-2.563a11.75,11.75,0,0,0,.074,1.329,14.64,14.64,0,0,0,1.45,5.556,7.263,7.263,0,0,0,3.915,3.175c-.024.755-1.051-.491-1.051.858,0,1.989.147,3.79-1.406,4.045-1.3.214-2.705-3.027-5.062-3.949-.543-.149-4.219,2.074-4.623,1.724C1146.554,1109.373,1145.483,1106.247,1145.76,1105.808Z" transform="translate(-1099.46 -1053.558)" fill="#f7d2a1"/>
        <path id="Trazado_797" data-name="Trazado 797" d="M1114.414,1175.313s2.33-4.29,4.149-2.942,5.739,4.293,6.978,5.495c1.29,1.252,2.175,2.681,1.669,2.681s-3.517-2.377-3.4-1.871.546,2.731-1.768,1.871S1115.223,1178.526,1114.414,1175.313Z" transform="translate(-1070.899 -1122.398)" fill="#4446ea"/>
        <path id="Trazado_798" data-name="Trazado 798" d="M1256.3,1183.156s1.276-5.727.711-6.224a5.851,5.851,0,0,1-1.128-1.16c-.019-.133,1.07-1.2,1.986-.64s2.919,3.371,2.648,3.447-1.2-.34-1.068.456S1257.282,1184.11,1256.3,1183.156Z" transform="translate(-1199.985 -1125.008)" fill="#4446ea"/>
        <g id="Grupo_454" data-name="Grupo 454" transform="translate(46.583 32.958)">
          <path id="Trazado_799" data-name="Trazado 799" d="M1162.209,989.755a5.771,5.771,0,0,0,.48-6.339,5.884,5.884,0,0,0-3.913-2.472c-3.141-.818-7.278.035-8.958,2.927-1,1.714.439,5.751.656,6.471.245.815.8,1.157,1.272,1.813.662.909,1.7,2.352,3.378,4.758a13.848,13.848,0,0,1,.933-2.174,11.757,11.757,0,0,1,1.756-2.465C1159.667,990.372,1160.953,991.162,1162.209,989.755Z" transform="translate(-1149.471 -980.65)" fill="#1a0f91"/>
          <path id="Trazado_800" data-name="Trazado 800" d="M1161.742,1063.075a7.488,7.488,0,0,0,5.938,4.174c3.746.25,5.107-8.474,2.9-10.665a4.632,4.632,0,0,0-3.627-1c-.784.122-1.073.421-2.358.593-1.185.159-1.5-.02-1.877.242-.473.328-.88,1.234-.39,3.905-.64-.854-1.465-1.261-2.1-1.043a1.234,1.234,0,0,0-.543.442C1159.076,1060.659,1159.827,1062.061,1161.742,1063.075Z" transform="translate(-1158.604 -1048.984)" fill="#ffddb1"/>
        </g>
        <g id="Grupo_455" data-name="Grupo 455" transform="translate(46.331 31.227)">
          <path id="Trazado_801" data-name="Trazado 801" d="M1161.724,968.965c-4.971.513-8.351.783-10.63.922a32.738,32.738,0,0,1-4.44.109s-.692-5.031,2.5-7.614a6.973,6.973,0,0,1,3.833-1.444C1159.3,960.34,1161.9,964.018,1161.724,968.965Z" transform="translate(-1146.591 -960.874)" fill="#1a0f91"/>
          <path id="Trazado_802" data-name="Trazado 802" d="M1201.558,1038.211c.068-.374,6.637-3.8,10.331-1.828s2.444,2.716,0,2.531S1201.558,1038.211,1201.558,1038.211Z" transform="translate(-1196.748 -1029.221)" fill="#1a0f91"/>
          <path id="Trazado_803" data-name="Trazado 803" d="M1201.558,1038.093s4.621,1.477,5.929.872,5.246-2.474,6.426-1.322c0,0-.9-2.174-6.027-1.987S1201.558,1038.093,1201.558,1038.093Z" transform="translate(-1196.748 -1029.102)" fill="#4f52ff"/>
          <path id="Trazado_804" data-name="Trazado 804" d="M1151.094,985.615a32.712,32.712,0,0,1-4.44.109s-.692-5.031,2.5-7.614c-.389,2.112-.449,5.092,1.554,7.052A3.066,3.066,0,0,1,1151.094,985.615Z" transform="translate(-1146.591 -976.602)" fill="#09065d" opacity="0.3" style="mix-blend-mode: multiply;isolation: isolate"/>
        </g>
        <g id="Grupo_460" data-name="Grupo 460" transform="translate(26.535)">
          <g id="Grupo_456" data-name="Grupo 456" transform="translate(12.461 0.015)">
            <path id="Trazado_805" data-name="Trazado 805" d="M1101.9,636.826a.955.955,0,0,0-1.34.169h0a.955.955,0,0,0,.169,1.34l82.987,64.405a.955.955,0,0,0,1.34-.169h0a.955.955,0,0,0-.169-1.34Z" transform="translate(-1097.074 -633.786)" fill="#bfc8d6"/>
            <rect id="Rectángulo_332" data-name="Rectángulo 332" width="3.183" height="25.466" rx="1.592" transform="matrix(0.613, -0.79, 0.79, 0.613, 67.899, 55.21)" fill="#0a0661"/>
            <rect id="Rectángulo_333" data-name="Rectángulo 333" width="3.183" height="9.55" rx="1.592" transform="translate(0 2.515) rotate(-52.186)" fill="#0a0661"/>
          </g>
          <g id="Grupo_459" data-name="Grupo 459">
            <path id="Trazado_806" data-name="Trazado 806" d="M929.506,619.142a5.421,5.421,0,0,1-3.872,1.21,3.7,3.7,0,0,1-3-1.884l-.172-.327c-.993-1.9-.008-4.487,2.259-5.7l9.759-5.241a1.975,1.975,0,0,1,2.579.521l.267.429S936.453,613.515,929.506,619.142Z" transform="translate(-921.924 -606.678)" fill="#0a0661"/>
            <path id="Trazado_807" data-name="Trazado 807" d="M965.112,624.479l-2.818-5.246-7.485,4.02,4.141,7.709a2.1,2.1,0,0,0,.606-.429,29.3,29.3,0,0,0,3.98-3.877c.269-.324.481-.617.718-.929C964.585,625.289,964.686,624.969,965.112,624.479Z" transform="translate(-951.794 -617.9)" fill="#0a0661"/>
            <g id="Grupo_457" data-name="Grupo 457" transform="translate(4.101 2.447)" opacity="0.2" style="mix-blend-mode: multiply;isolation: isolate">
              <path id="Trazado_808" data-name="Trazado 808" d="M1002.667,692.51l-5.6,3.009a.255.255,0,1,0,.239.446l4.615-2.479C1002.264,693.3,1002.353,692.678,1002.667,692.51Z" transform="translate(-994.308 -687.212)" fill="#0a0661"/>
              <path id="Trazado_809" data-name="Trazado 809" d="M993.283,684.123a.218.218,0,0,0,.3.061l6.269-3.367a.219.219,0,0,0,.115-.284l-.054-.1a.219.219,0,0,0-.3-.061l-6.269,3.367a.218.218,0,0,0-.115.284Z" transform="translate(-990.936 -676.106)" fill="#0a0661"/>
              <path id="Trazado_810" data-name="Trazado 810" d="M986.445,671.391a.219.219,0,0,0,.3.061l6.269-3.367a.219.219,0,0,0,.115-.284l-.054-.1a.218.218,0,0,0-.3-.061l-6.269,3.367a.218.218,0,0,0-.114.284Z" transform="translate(-984.696 -664.488)" fill="#0a0661"/>
              <path id="Trazado_811" data-name="Trazado 811" d="M982.342,663.752a.219.219,0,0,0,.3.061l6.269-3.367a.218.218,0,0,0,.115-.284l-.054-.1a.218.218,0,0,0-.3-.061l-6.269,3.367a.218.218,0,0,0-.114.284Z" transform="translate(-980.952 -657.517)" fill="#0a0661"/>
              <path id="Trazado_812" data-name="Trazado 812" d="M978.239,656.113a.219.219,0,0,0,.3.061l6.269-3.367a.219.219,0,0,0,.115-.284l-.054-.1a.218.218,0,0,0-.3-.061l-6.269,3.367a.219.219,0,0,0-.115.284Z" transform="translate(-977.208 -650.546)" fill="#0a0661"/>
              <path id="Trazado_813" data-name="Trazado 813" d="M971.4,643.381a.218.218,0,0,0,.3.061l6.269-3.367a.218.218,0,0,0,.115-.284l-.054-.1a.218.218,0,0,0-.3-.061L971.461,643a.218.218,0,0,0-.114.284Z" transform="translate(-970.968 -638.928)" fill="#0a0661"/>
              <path id="Trazado_814" data-name="Trazado 814" d="M967.3,635.741a.219.219,0,0,0,.3.061l6.269-3.367a.218.218,0,0,0,.115-.284l-.054-.1a.218.218,0,0,0-.3-.062l-6.269,3.367a.219.219,0,0,0-.115.284Z" transform="translate(-967.224 -631.957)" fill="#0a0661"/>
            </g>
            <g id="Grupo_458" data-name="Grupo 458">
              <path id="Trazado_815" data-name="Trazado 815" d="M936.042,605.379l-.312-.5a2.259,2.259,0,0,0-2.939-.592l-9.762,5.243c-2.353,1.264-3.314,3.914-2.228,5.934l.19.354a3.825,3.825,0,0,0,3.092,2.051,5.5,5.5,0,0,0,3.41-.8,5.623,5.623,0,0,0,.615-.434,26.958,26.958,0,0,0,5.646-6.1,14.421,14.421,0,0,0,2.267-5.087Zm-.611.1a14.165,14.165,0,0,1-1.968,4.505s-.015-.018-.013-.014a25.749,25.749,0,0,1-5.711,6.226c-.164.131-.69.479-.786.531a4.727,4.727,0,0,1-2.714.64,3.359,3.359,0,0,1-2.712-1.826l-.19-.354a4.1,4.1,0,0,1,1.811-5.428l9.762-5.243a1.8,1.8,0,0,1,2.273.566Z" transform="translate(-920.356 -603.997)" fill="#0a0661"/>
            </g>
          </g>
        </g>
        <path id="Trazado_816" data-name="Trazado 816" d="M967.537,1431.9a2.336,2.336,0,0,1-1.6,1.017c-8.515,1.3-34.6,4.37-36.145-6.664-1.4-9.95-9.377-36.543-8.2-52.608,3.462.273,19.279,2.173,18.332,14.068-1.062,13.352-3.15,17.752,8.819,17.752s10.451,8.193,11.513,17.449c.568,4.943,3.687,4.91,7.189,5.283.137.7.276,1.308.41,1.833A2.34,2.34,0,0,1,967.537,1431.9Z" transform="translate(-894.845 -1306.297)" fill="#4446ea" opacity="0.3" style="mix-blend-mode: multiply;isolation: isolate"/>
        <path id="Trazado_817" data-name="Trazado 817" d="M1253.987,1261.381s1.7.344,1.927,1.368.114,6.752.8,6.9.038-7.524-.19-8.011a3.261,3.261,0,0,0-2.533-.866C1253.091,1260.859,1253.987,1261.381,1253.987,1261.381Z" transform="translate(-1197.895 -1203.298)" fill="#4446ea"/>
        <path id="Trazado_818" data-name="Trazado 818" d="M1971.763,1298.826s-1.922,3.237-4.552,1.517-3.287-3.793-2.175-4.7S1970.9,1296.7,1971.763,1298.826Z" transform="translate(-1846.618 -1234.912)" fill="#d8dee8"/>
        <g id="Grupo_461" data-name="Grupo 461" transform="translate(26.085 55.393)">
          <path id="Trazado_819" data-name="Trazado 819" d="M1061.127,1262.078c-1.1.73-3.089,2.382-5.726,4.493-9.411,7.537-27.108,20.9-42.479,18.734-19.678-2.763-44.271-10.959-39.3-20.641s7.119-13.5,14.5-10.615c0,0,24.063,19.112,34.964,16,8.989-2.563,23.023-7.911,27.675-9.711a4.6,4.6,0,0,1,2.26-.114s-.747-7.119,2.883-7.619,3.333-5.7,5.007-3.458S1066.172,1258.745,1061.127,1262.078Z" transform="translate(-967.917 -1247.576)" fill="#ffddb1"/>
          <path id="Trazado_820" data-name="Trazado 820" d="M945.1,1246.8s-11.51-15.8-21.7-7.161-11.421,20.247-.557,26.914,14.908,6.914,14.908,6.914l11.435-23.334Z" transform="translate(-915.216 -1237.051)" fill="#91b3fa"/>
        </g>
      </g>
      <g id="Grupo_465" data-name="Grupo 465" transform="translate(95.659 17.745)">
        <g id="Grupo_463" data-name="Grupo 463" transform="translate(66.594 10.327)">
          <path id="Trazado_821" data-name="Trazado 821" d="M2322.063,786.257s2.82-5.464,7.655-3.345,4.387,1.007,7.744,1.428,7.512,2.752,4.808,3.221-23.878,1.006-23.878,1.006S2318.706,786.543,2322.063,786.257Z" transform="translate(-2318.392 -782.424)" fill="#fff"/>
        </g>
        <g id="Grupo_464" data-name="Grupo 464">
          <path id="Trazado_822" data-name="Trazado 822" d="M1562.279,669.572s3.8-7.366,10.319-4.509,5.914,1.357,10.44,1.926,10.127,3.709,6.482,4.341-32.188,1.356-32.188,1.356S1557.754,669.958,1562.279,669.572Z" transform="translate(-1557.331 -664.405)" fill="#fff"/>
        </g>
      </g>
    </g>
  </g>
</svg>
