<svg xmlns="http://www.w3.org/2000/svg" width="37" height="36.183" viewBox="0 0 37 36.183">
  <g id="Grupo_719" data-name="Grupo 719" transform="translate(-13 -14.1)">
    <path id="Trazado_654" data-name="Trazado 654" d="M22.527,25.151l8.456,8.456a1.052,1.052,0,0,0,1.524,0,1.052,1.052,0,0,0,0-1.524l-8.456-8.456a1.078,1.078,0,1,0-1.524,1.524Z" transform="translate(-5.861 -5.861)" fill="#ca9e64"/>
    <path id="Trazado_655" data-name="Trazado 655" d="M13.327,32.827a1.052,1.052,0,0,0,0,1.524L24.359,45.384a3.681,3.681,0,0,0,5.154,0,1.078,1.078,0,1,0-1.524-1.524,1.514,1.514,0,0,1-2.069,0L14.851,32.827A1.052,1.052,0,0,0,13.327,32.827Z" transform="translate(0 -11.722)" fill="#ca9e64"/>
    <path id="Trazado_656" data-name="Trazado 656" d="M31.743,76.333a1.078,1.078,0,0,0-1.524-1.524l-7.875,7.839a3.285,3.285,0,0,0,4.645,4.645l10.96-11.033L48.982,87.294a3.285,3.285,0,0,0,4.645-4.645l-6.9-6.9a1.052,1.052,0,0,0-1.524,0,1.084,1.084,0,0,0,0,1.524l6.9,6.9a1.045,1.045,0,0,1,.327.762.988.988,0,0,1-.327.762,1.12,1.12,0,0,1-1.524,0L38.711,73.974a1.12,1.12,0,0,0-1.524,0L25.428,85.733a1.12,1.12,0,0,1-1.524,0,1.045,1.045,0,0,1-.327-.762.988.988,0,0,1,.327-.762Z" transform="translate(-5.351 -37.954)" fill="#ca9e64"/>
    <path id="Trazado_657" data-name="Trazado 657" d="M57.966,15.443l-9.98,9.98a1.078,1.078,0,1,0,1.524,1.524L58.656,17.8a5.5,5.5,0,0,1-.69,6.859l-8.928,8.964-4.065-3.956a3.77,3.77,0,0,0,.4-1.669,3.592,3.592,0,0,0-1.052-2.577l-11.069-11a1.078,1.078,0,0,0-1.524,1.524L42.759,26.984A1.433,1.433,0,0,1,43.195,28a1.373,1.373,0,0,1-.436,1.016,1.045,1.045,0,0,0-.327.762.988.988,0,0,0,.327.762l5.48,5.335a1.052,1.052,0,0,0,1.524,0l9.726-9.726a7.623,7.623,0,0,0,0-10.779A1.206,1.206,0,0,0,57.966,15.443Z" transform="translate(-11.722)" fill="#ca9e64"/>
  </g>
</svg>
