<svg xmlns="http://www.w3.org/2000/svg" width="25.714" height="30" viewBox="0 0 25.714 30">
  <g id="Location_marker" data-name="Location marker" transform="translate(-4 -2)">
    <path id="Trazado_658" data-name="Trazado 658" d="M11.811,7.046a1.06,1.06,0,0,1-.225-1.168,1.1,1.1,0,0,1,.225-.354,1.122,1.122,0,0,1,1.521,0,1.23,1.23,0,0,1,.225.354,1.071,1.071,0,0,1-1.746,1.168Zm17.9.311V30.929A1.071,1.071,0,0,1,28.643,32H5.071A1.075,1.075,0,0,1,4,30.929V7.357A1.071,1.071,0,0,1,5.071,6.286H8.286a4.286,4.286,0,1,1,8.571,0H28.643A1.076,1.076,0,0,1,29.714,7.357ZM27.571,9.944l-9.049,9.049,9.049,6.264ZM10.429,6.286a2.267,2.267,0,0,0,.143.642c.008.017.01.036.017.054a22.178,22.178,0,0,0,1.983,3.781,22.262,22.262,0,0,0,1.984-3.784c.006-.016.008-.034.015-.05a2.264,2.264,0,0,0,.144-.643,2.143,2.143,0,0,0-4.286,0ZM6.143,8.429V28.342L14.285,20.2l0,0L26.056,8.429H16.273a32.826,32.826,0,0,1-2.819,4.895,1.072,1.072,0,0,1-1.764,0A32.826,32.826,0,0,1,8.87,8.429Zm7.83,15.114L7.658,29.857h6.314Zm13.6,6.315V27.864L16.982,20.533l-.867.867v8.457Z" transform="translate(0 0)" fill="#ca9e64"/>
  </g>
</svg>
