<svg xmlns="http://www.w3.org/2000/svg" width="23.344" height="37" viewBox="0 0 23.344 37">
  <g id="Grupo_723" data-name="Grupo 723" transform="translate(-21.607 -5)">
    <path id="Trazado_649" data-name="Trazado 649" d="M44.13,42.084h-21.7a.823.823,0,0,0-.822.822V44.44a11.664,11.664,0,0,0,.187,2.065c0,.012,0,.025.007.037A11.71,11.71,0,0,0,28.754,55.2l-2.412,7.567a.822.822,0,1,0,1.566.5l1.121-3.515h3.428v3.266a.822.822,0,0,0,1.644,0V59.75H37.53l1.121,3.515a.823.823,0,0,0,.783.573.813.813,0,0,0,.25-.039.822.822,0,0,0,.534-1.033L37.8,55.2a11.71,11.71,0,0,0,6.955-8.663l0-.021a11.661,11.661,0,0,0,.188-2.075V42.907A.822.822,0,0,0,44.13,42.084ZM29.554,58.106l.758-2.377a11.61,11.61,0,0,0,2.146.351v2.026Zm7.452,0H34.1V56.08a11.61,11.61,0,0,0,2.146-.352Zm-3.726-3.638a10.044,10.044,0,0,1-9.643-7.283H37.922a.822.822,0,1,0,0-1.644H23.313a10.124,10.124,0,0,1-.062-1.1v-.712H43.307v.712a10.021,10.021,0,0,1-.062,1.1H40.234a.822.822,0,1,0,0,1.644h2.688A10.043,10.043,0,0,1,33.279,54.468Z" transform="translate(0 -21.838)" fill="#ca9e64"/>
    <path id="Trazado_650" data-name="Trazado 650" d="M41.5,20.181a.822.822,0,1,0,.909-1.37,4.174,4.174,0,0,1-1.865-3.784c.01-.13.026-.257.047-.379a.822.822,0,1,0-1.62-.282c-.03.173-.053.351-.067.536A5.82,5.82,0,0,0,41.5,20.181Z" transform="translate(-10.177 -5.115)" fill="#ca9e64"/>
    <path id="Trazado_651" data-name="Trazado 651" d="M41.7,7.911a.823.823,0,0,0,1.154-.147A4.84,4.84,0,0,1,44.238,6.55.822.822,0,1,0,43.47,5.1a6.447,6.447,0,0,0-1.917,1.662A.822.822,0,0,0,41.7,7.911Z" transform="translate(-11.645 0)" fill="#ca9e64"/>
    <path id="Trazado_652" data-name="Trazado 652" d="M54.405,30.723a.822.822,0,0,0-1.132.266,4.188,4.188,0,0,1-1.253,1.293.822.822,0,1,0,.909,1.37,5.819,5.819,0,0,0,1.741-1.8A.821.821,0,0,0,54.405,30.723Z" transform="translate(-17.694 -15.075)" fill="#ca9e64"/>
    <path id="Trazado_653" data-name="Trazado 653" d="M51.043,15.088a4.407,4.407,0,0,1,2.224,3.362,4.142,4.142,0,0,1-.009.721.822.822,0,0,0,.736.9.806.806,0,0,0,.083,0,.822.822,0,0,0,.817-.74,5.792,5.792,0,0,0,.012-1.01,6.143,6.143,0,0,0-3.1-4.693.822.822,0,0,0-.765,1.456Z" transform="translate(-17.076 -5.027)" fill="#ca9e64"/>
  </g>
</svg>
