<svg xmlns="http://www.w3.org/2000/svg" width="33.084" height="38" viewBox="0 0 33.084 38">
  <g id="noun_Birthday_2938683" transform="translate(-6.976 -30.35)">
    <g id="Grupo_305" data-name="Grupo 305" transform="translate(7.483 30.85)">
      <g id="Grupo_298" data-name="Grupo 298" transform="translate(1.732 24.965)">
        <g id="Grupo_297" data-name="Grupo 297">
          <path id="Trazado_638" data-name="Trazado 638" d="M167.361,681.438v7.148c0,.442.015.892,0,1.334,0,.015-.019.188,0,.054a.769.769,0,0,1-.019.1,1.609,1.609,0,0,1-.073.242c.038-.112-.05.1-.073.131l-.069.1c-.023.035-.019.027.015-.019-.019.027-.042.05-.065.077a1.491,1.491,0,0,1-.181.169c.081-.069.015-.011,0,0-.042.027-.085.054-.127.077l-.088.046c-.135.073.1-.023-.05.019a2.379,2.379,0,0,1-.273.069c-.092.015.135,0-.027,0,.1,0-.2,0-.108,0H142.183c-.054,0-.1,0-.158-.008.1.008-.012,0-.05-.012a1.611,1.611,0,0,1-.242-.073c.108.038,0,0-.023-.012s-.073-.038-.108-.062-.054-.035-.085-.054c-.131-.081.069.073-.042-.031a2.686,2.686,0,0,1-.208-.211c.073.092-.046-.077-.065-.108s-.038-.073-.058-.112c-.073-.138.019.065-.012-.023s-.05-.161-.069-.246c-.008-.031-.012-.142-.008-.027,0-.054-.008-.1-.008-.158v-8.432l-.984.408a5.175,5.175,0,0,0,7.3-.742h-.815a5.233,5.233,0,0,0,6.533,1.273,5.166,5.166,0,0,0,1.511-1.269h-.815a5.242,5.242,0,0,0,6.537,1.273,5.166,5.166,0,0,0,1.511-1.269h-.815a5.151,5.151,0,0,0,3.268,1.857,5.252,5.252,0,0,0,3.941-1.027.6.6,0,0,0,.208-.788.58.58,0,0,0-.788-.208,5.076,5.076,0,0,1-.773.5l-.165.081c-.038.015-.073.035-.112.05q.063-.029-.035.012c-.135.05-.273.1-.411.138a3.619,3.619,0,0,1-.842.146c-.146.008-.3.008-.446,0l-.185-.012c-.019,0-.242-.027-.146-.012a4.482,4.482,0,0,1-.807-.192c-.073-.023-.146-.054-.219-.081s-.073-.031-.023-.008l-.081-.035c-.131-.062-.261-.127-.384-.2a4.081,4.081,0,0,1-1.18-1.034.577.577,0,0,0-.815,0,5.238,5.238,0,0,1-.508.546c-.073.065-.215.185-.25.211s-.2.142-.3.2c-.108.065-.215.127-.327.185-.05.027-.1.054-.158.077l-.081.035c-.088.038.069-.027-.023.012a4.42,4.42,0,0,1-.757.231l-.177.035c-.031,0-.058.012-.088.015-.1.015.073-.008-.027,0-.131.015-.261.023-.4.027s-.265,0-.4-.008c-.062,0-.123-.008-.181-.015-.012,0-.135-.015-.073-.008.046.008-.062-.012-.073-.012a4.5,4.5,0,0,1-.746-.188,3.118,3.118,0,0,1-.631-.288c-.127-.069-.246-.15-.365-.231-.023-.015-.154-.112-.092-.065-.054-.042-.1-.085-.154-.127a4.594,4.594,0,0,1-.615-.638.577.577,0,0,0-.815,0,5.233,5.233,0,0,1-.508.546c-.073.065-.215.188-.25.211s-.2.142-.3.2c-.108.065-.215.127-.327.185-.05.027-.1.054-.158.077l-.081.035c-.088.039.069-.027-.023.012a4.408,4.408,0,0,1-.757.231l-.177.035c-.031,0-.058.012-.088.015-.1.015.073-.008-.027,0-.131.015-.261.023-.4.027s-.265,0-.4-.008c-.062,0-.123-.008-.181-.015-.012,0-.135-.015-.073-.008.046.008-.062-.012-.073-.012a4.516,4.516,0,0,1-.746-.188,3.216,3.216,0,0,1-.631-.288c-.127-.069-.246-.15-.365-.231-.023-.015-.154-.112-.092-.065-.054-.042-.1-.085-.154-.127a4.59,4.59,0,0,1-.615-.638.577.577,0,0,0-.815,0,4.076,4.076,0,0,1-1.177,1.034,3.938,3.938,0,0,1-.358.188c-.035.015-.069.031-.1.05.05-.019.042-.015-.023.008s-.108.042-.165.062a4.455,4.455,0,0,1-.831.208,4.273,4.273,0,0,1-1.592-.1c-.138-.038-.277-.081-.415-.131l-.115-.046c.042.019.031.015-.031-.015s-.111-.05-.165-.081q-.19-.1-.369-.208c-.069-.042-.135-.088-.2-.135l-.1-.069c.038.031.031.023-.023-.019a.588.588,0,0,0-.631-.119.58.58,0,0,0-.354.527v7.233a9.788,9.788,0,0,0,.042,1.611,2.316,2.316,0,0,0,2.322,1.873h23.559a3.252,3.252,0,0,0,1.154-.131,2.306,2.306,0,0,0,1.5-1.869,4.246,4.246,0,0,0,.023-.584v-8.129a.584.584,0,0,0-.577-.577A.59.59,0,0,0,167.361,681.438Z" transform="translate(-139.887 -680.112)" fill="#ca9e64" stroke="#ca9e64" stroke-width="1"/>
        </g>
      </g>
      <g id="Grupo_300" data-name="Grupo 300" transform="translate(0 17.497)">
        <g id="Grupo_299" data-name="Grupo 299" transform="translate(0 0)">
          <path id="Trazado_639" data-name="Trazado 639" d="M125.78,491.095a3.436,3.436,0,0,1-.119.977,4.813,4.813,0,0,1-.146.473,1.4,1.4,0,0,1-.054.135c.012-.023.038-.081-.012.023-.042.088-.081.173-.127.258-.077.142-.161.285-.25.419-.042.062-.088.127-.135.185-.065.085.085-.1-.035.042-.031.035-.062.073-.092.108a4.427,4.427,0,0,1-.7.646,4.358,4.358,0,0,1-.438.273c-.073.038-.142.077-.215.112-.046.023-.092.042-.138.065s-.038.015,0,0l-.058.023a5.3,5.3,0,0,1-.531.169c-.081.019-.161.038-.246.054-.112.023-.162.031-.223.038a4.333,4.333,0,0,1-.546.027q-.138,0-.277-.012c-.042,0-.081-.008-.123-.008,0,0-.185-.023-.088-.008a4.264,4.264,0,0,1-1-.265c-.019-.008-.135-.058-.05-.019a1.369,1.369,0,0,1-.131-.062c-.088-.042-.173-.085-.258-.135a4.522,4.522,0,0,1-.485-.311c-.088-.065.1.085-.042-.031-.038-.031-.073-.062-.112-.092-.073-.062-.142-.127-.211-.192a4.443,4.443,0,0,1-.4-.446.577.577,0,0,0-.815,0,5.239,5.239,0,0,1-.508.546c-.073.065-.215.185-.25.211s-.2.142-.3.2c-.108.065-.215.127-.327.185-.05.027-.1.054-.158.077l-.081.035c-.088.038.069-.027-.023.012a4.409,4.409,0,0,1-.757.231l-.177.035c-.031,0-.058.012-.088.015-.1.015.073-.008-.027,0-.131.015-.261.023-.4.027s-.265,0-.4-.008c-.062,0-.123-.008-.181-.015-.012,0-.135-.015-.073-.008.046.008-.062-.012-.073-.012a4.509,4.509,0,0,1-.746-.188,3.119,3.119,0,0,1-.631-.288c-.127-.069-.246-.15-.365-.231-.023-.015-.154-.112-.092-.065-.054-.042-.1-.085-.154-.127a4.6,4.6,0,0,1-.615-.638.577.577,0,0,0-.815,0,5.234,5.234,0,0,1-.508.546c-.073.065-.215.188-.25.212s-.2.142-.3.2c-.108.065-.215.127-.327.185-.05.027-.1.054-.158.077l-.081.035c-.088.038.069-.027-.023.012a4.409,4.409,0,0,1-.757.231l-.177.035c-.031,0-.058.012-.088.015-.1.015.073-.008-.027,0-.131.015-.261.023-.4.027s-.265,0-.4-.008c-.062,0-.123-.008-.181-.015-.012,0-.135-.015-.073-.008.046.008-.062-.012-.073-.012a4.513,4.513,0,0,1-.746-.188,3.118,3.118,0,0,1-.631-.288c-.127-.069-.246-.15-.365-.231-.023-.015-.154-.112-.092-.065-.054-.042-.1-.085-.154-.127a4.593,4.593,0,0,1-.615-.638.577.577,0,0,0-.815,0,4.483,4.483,0,0,1-.385.427c-.069.065-.138.131-.211.2-.042.038-.088.073-.131.112-.088.073.038-.023-.065.05a4.956,4.956,0,0,1-.488.308c-.085.046-.169.092-.258.131-.035.015-.069.031-.108.05.085-.038-.085.035-.1.042a4.039,4.039,0,0,1-4.314-.915l-.2-.208a.808.808,0,0,1-.073-.088s-.119-.146-.054-.062a3.872,3.872,0,0,1-.331-.5c-.042-.077-.085-.15-.123-.227-.027-.05-.05-.1-.073-.158-.05-.1-.019-.046-.012-.023a4.208,4.208,0,0,1-.2-.611c-.023-.1-.046-.192-.062-.288-.008-.05-.015-.1-.023-.146-.015-.112.012.135-.008-.054a5.217,5.217,0,0,1-.023-.65c0-.081.008-.161.015-.238,0-.042.008-.088.012-.131.015-.169-.012.073,0-.031a5.089,5.089,0,0,1,.115-.534c.046-.165.1-.327.165-.484-.042.1,0,0,.012-.027s.035-.077.054-.115c.046-.092.092-.181.142-.269a4.407,4.407,0,0,1,.273-.423c.019-.027.038-.054.062-.081-.069.088,0,0,.019-.023.062-.069.119-.142.181-.208.115-.123.235-.238.361-.35.038-.035.077-.065.115-.1.015-.012.085-.069,0,0,.081-.061.161-.119.246-.173a4.922,4.922,0,0,1,.435-.254c.077-.038.154-.073.231-.112.019-.008.1-.042,0,0,.054-.023.111-.042.165-.065.154-.054.311-.1.469-.142.085-.019.169-.038.254-.054.05-.008.1-.019.154-.027-.127.019.042,0,.058-.008a6.4,6.4,0,0,1,.665-.023q4.608,0,9.221.008,5.468.006,10.932.008h1.411c.088,0,.181,0,.269.012l.131.012c.027,0,.211.031.081.008a5.325,5.325,0,0,1,1,.265c.158.058-.1-.05.05.019.031.015.062.027.092.042.077.035.15.073.227.115a5.061,5.061,0,0,1,.473.292c.035.023.069.05.1.073.077.058-.1-.085.023.019.065.054.127.108.192.161a4.823,4.823,0,0,1,.369.373c.027.031.054.062.081.1,0,0,.1.123.05.058s.05.065.046.062c.023.035.05.069.073.1a4.165,4.165,0,0,1,.273.454c.038.073.077.15.112.227,0,0,.065.15.031.069s.031.077.027.073a5.45,5.45,0,0,1,.169.538c.019.085.038.169.054.254.008.035.012.069.019.1.031.169-.008-.119.008.054a3.034,3.034,0,0,1,.046.55.577.577,0,1,0,1.154,0,5.241,5.241,0,0,0-2.111-4.168,5.014,5.014,0,0,0-2.08-.915,8.358,8.358,0,0,0-1.519-.1q-5.295-.006-10.59-.008-5.128-.006-10.251-.008a6.612,6.612,0,0,0-1.692.177,5.282,5.282,0,0,0-2.1,1.134,5.189,5.189,0,0,0,6.544,8.04,5.264,5.264,0,0,0,.934-.892h-.815a5.242,5.242,0,0,0,6.537,1.273,5.166,5.166,0,0,0,1.511-1.269h-.815a5.242,5.242,0,0,0,6.537,1.273,5.166,5.166,0,0,0,1.511-1.269h-.815a5.182,5.182,0,0,0,9.209-3.265.581.581,0,0,0-.577-.577A.572.572,0,0,0,125.78,491.095Z" transform="translate(-94.856 -485.9)" fill="#ca9e64" stroke="#ca9e64" stroke-width="1"/>
        </g>
      </g>
      <g id="Grupo_302" data-name="Grupo 302" transform="translate(12.941 10.244)">
        <g id="Grupo_301" data-name="Grupo 301">
          <path id="Trazado_640" data-name="Trazado 640" d="M436.476,298.679v6.414l.577-.577q-2.538,0-5.076,0l.577.577v-4.668c0-.577.023-1.161,0-1.738,0-.042.012-.1-.008-.008a.955.955,0,0,1,.027-.1c-.027.112.012-.019.027-.046s.065-.077,0,0c0,0,.115-.108.05-.058s.069-.038.065-.038c.058-.031.062-.031,0,0a.249.249,0,0,0,.05-.015l.05-.012c-.065.008-.065.012,0,.008h3.018c.119,0,.238,0,.361,0,.031,0,.115.015.012-.008.015,0,.177.054.058,0a.872.872,0,0,1,.131.073c-.092-.065,0,0,.015.023s.023.023-.012-.019c.019.027.038.058.054.085s.023.092,0,0a.953.953,0,0,1,.027.1c-.015-.065-.015-.065-.012.008a.577.577,0,0,0,1.154,0,1.454,1.454,0,0,0-1.5-1.423h-2.776a2.293,2.293,0,0,0-1.261.2,1.513,1.513,0,0,0-.692,1.357v6.271a.586.586,0,0,0,.577.577q2.538,0,5.076,0a.586.586,0,0,0,.577-.577v-6.414a.577.577,0,0,0-1.154,0Z" transform="translate(-431.4 -297.254)" fill="#ca9e64" stroke="#ca9e64" stroke-width="1"/>
        </g>
      </g>
      <g id="Grupo_304" data-name="Grupo 304" transform="translate(12.503 0)">
        <g id="Grupo_303" data-name="Grupo 303">
          <path id="Trazado_641" data-name="Trazado 641" d="M425.949,36.308c0,.073,0,.142-.008.215,0,.031-.031.227-.012.108a2.954,2.954,0,0,1-.112.45c-.019.058-.038.112-.062.169-.031.085.038-.077,0,0-.015.031-.027.062-.042.092a3.166,3.166,0,0,1-.219.365l-.058.081c.065-.085.012-.015,0,0-.042.05-.088.1-.135.15a1.606,1.606,0,0,1-.142.138c-.023.023-.05.046-.073.065s-.138.108-.038.035a2.976,2.976,0,0,1-.315.208c-.058.035-.119.062-.177.092-.015.008-.112.05-.046.023s-.058.023-.073.027a3.519,3.519,0,0,1-.392.115c-.027.008-.227.038-.1.023q-.133.017-.265.023a3.168,3.168,0,0,1-.427-.015c-.023,0-.112-.019,0,0a.544.544,0,0,1-.077-.015,2.167,2.167,0,0,1-.227-.054c-.065-.019-.131-.038-.2-.062-.027-.008-.208-.085-.1-.035a3.03,3.03,0,0,1-.4-.215,1.594,1.594,0,0,1-.165-.115c.092.069-.058-.05-.077-.069a3.269,3.269,0,0,1-.281-.285l-.065-.077c.065.081.012.015,0,0-.038-.054-.077-.108-.112-.165s-.069-.115-.1-.173c-.015-.031-.031-.062-.046-.088,0-.012-.073-.165-.023-.046a2.857,2.857,0,0,1-.127-.388c-.015-.065-.031-.135-.042-.2,0-.023-.019-.112,0,0a.751.751,0,0,1-.012-.131,3.091,3.091,0,0,1-.008-.327c0-.019,0-.038,0-.058,0-.1,0,.065-.008.062a.632.632,0,0,1,.031-.158,3.992,3.992,0,0,1,.185-.561c.027-.073-.046.1-.012.031a.592.592,0,0,0,.031-.073c.023-.05.046-.1.069-.146.054-.108.108-.211.165-.315.115-.211.242-.419.369-.623.261-.408.542-.8.838-1.192.015-.023.035-.042.05-.065.042-.058-.069.088,0,0l.123-.158c.069-.088.142-.177.211-.265.123-.154.25-.3.377-.454s.238-.277.361-.411h-.815c.338.373.661.765.973,1.161.035.042.065.085.1.127.019.023.065.085-.015-.019.015.023.035.042.05.065.073.1.146.192.219.292.146.2.285.4.423.6a10.33,10.33,0,0,1,.734,1.242c.023.05.046.1.069.146.012.023.023.05.035.073.058.123-.046-.119,0,.008.038.1.081.208.112.311a2.574,2.574,0,0,1,.077.3c0,.019.008.042.012.062.023.112-.008-.142,0-.031a.784.784,0,0,0,0,.135.577.577,0,0,0,1.154,0,5.223,5.223,0,0,0-1.054-2.611,21.922,21.922,0,0,0-1.7-2.246c-.123-.146-.25-.292-.377-.434a.58.58,0,0,0-.815,0c-.392.434-.765.888-1.123,1.35a12.368,12.368,0,0,0-1.75,2.811,2.953,2.953,0,0,0-.246,1.4,3.634,3.634,0,0,0,.777,1.953A3.535,3.535,0,0,0,427.1,36.3a.581.581,0,0,0-.577-.577A.589.589,0,0,0,425.949,36.308Z" transform="translate(-420.029 -30.85)" fill="#ca9e64" stroke="#ca9e64" stroke-width="1"/>
        </g>
      </g>
    </g>
  </g>
</svg>
