<svg xmlns="http://www.w3.org/2000/svg" width="30" height="29.959" viewBox="0 0 30 29.959">
  <g id="Grupo_724" data-name="Grupo 724" transform="translate(14053.053 11046.65)">
    <g id="Grupo_324" data-name="Grupo 324" transform="translate(-14053.053 -11046.65)">
      <path id="Trazado_645" data-name="Trazado 645" d="M30.668,26.973,22.08,8a1.056,1.056,0,0,0-.7-.6.805.805,0,0,0-.9.3L7.7,20.482a1.394,1.394,0,0,0-.3.9,1.056,1.056,0,0,0,.6.7l18.974,8.588a2.764,2.764,0,0,0,1.3.3,2.931,2.931,0,0,0,2.3-1.2A3.047,3.047,0,0,0,30.668,26.973Zm-13.681-3.1,6.99-6.99,2.7,5.792-3.795,3.795ZM20.782,10.2l2.2,4.893L14.99,23.079l-4.893-2.2Zm8.089,18.475a.75.75,0,0,1-1,.2l-3.1-1.4,2.7-2.7,1.4,3.1A1.094,1.094,0,0,1,28.871,28.671Z" transform="translate(-0.956 -1.009)" fill="#ca9e64"/>
      <path id="Trazado_646" data-name="Trazado 646" d="M14,12.984a.9.9,0,0,0,.5-.1,1.01,1.01,0,0,0,.4-1.4,6.2,6.2,0,0,1-.2-6.291,4.242,4.242,0,0,1,3.3-2.2.943.943,0,0,0,1-1,.943.943,0,0,0-1-1A6.079,6.079,0,0,0,12.9,4.2a8.223,8.223,0,0,0,.2,8.289A1.049,1.049,0,0,0,14,12.984Z" transform="translate(-0.963 -1)" fill="#ca9e64"/>
      <path id="Trazado_647" data-name="Trazado 647" d="M2.4,9.9a5.557,5.557,0,0,1,4.194.1,5.974,5.974,0,0,1,3.4,3.4.96.96,0,0,0,.9.6.755.755,0,0,0,.4-.1,1.039,1.039,0,0,0,.6-1.3A7.8,7.8,0,0,0,7.391,8.2,7.756,7.756,0,0,0,1.6,8.1a.984.984,0,1,0,.8,1.8Z" transform="translate(-0.948 -1.009)" fill="#ca9e64"/>
      <path id="Trazado_648" data-name="Trazado 648" d="M9.588,16.9a1.011,1.011,0,0,0,.7-1.9A7.266,7.266,0,0,0,3.7,16.3,7.2,7.2,0,0,0,1,23.089a.985.985,0,0,0,1,.9h.1a1.007,1.007,0,0,0,.9-1.1,5.245,5.245,0,0,1,1.9-4.993A5.752,5.752,0,0,1,9.588,16.9Z" transform="translate(-0.948 -1.019)" fill="#ca9e64"/>
      <circle id="Elipse_35" data-name="Elipse 35" cx="1.997" cy="1.997" r="1.997" transform="translate(5.045 0.999)" fill="#ca9e64"/>
      <circle id="Elipse_36" data-name="Elipse 36" cx="1.997" cy="1.997" r="1.997" transform="translate(1.051 9.986)" fill="#ca9e64"/>
    </g>
  </g>
</svg>
