<svg xmlns="http://www.w3.org/2000/svg" width="37" height="33.298" viewBox="0 0 37 33.298">
  <g id="Grupo_721" data-name="Grupo 721" transform="translate(-2 -5)">
    <path id="Trazado_659" data-name="Trazado 659" d="M28.446,12.754a.862.862,0,0,0,1.723,0,2.585,2.585,0,0,1,2.585-2.585.862.862,0,1,0,0-1.723A2.585,2.585,0,0,1,30.17,5.862a.862.862,0,0,0-1.723,0,2.585,2.585,0,0,1-2.585,2.585.862.862,0,1,0,0,1.723A2.585,2.585,0,0,1,28.446,12.754Zm.862-4.335a4.3,4.3,0,0,0,.888.888,4.3,4.3,0,0,0-.888.888,4.3,4.3,0,0,0-.888-.888,4.3,4.3,0,0,0,.888-.888Z" transform="translate(-9.945)" fill="#ca9e64"/>
    <rect id="Rectángulo_295" data-name="Rectángulo 295" width="1.723" height="1.723" transform="translate(35.549 5.862)" fill="#ca9e64"/>
    <rect id="Rectángulo_296" data-name="Rectángulo 296" width="1.723" height="1.723" transform="translate(35.549 9.308)" fill="#ca9e64"/>
    <rect id="Rectángulo_297" data-name="Rectángulo 297" width="1.723" height="1.723" transform="translate(33.826 7.585)" fill="#ca9e64"/>
    <rect id="Rectángulo_298" data-name="Rectángulo 298" width="1.723" height="1.723" transform="translate(37.272 7.585)" fill="#ca9e64"/>
    <rect id="Rectángulo_299" data-name="Rectángulo 299" width="1.723" height="1.723" transform="translate(3.723 17.144)" fill="#ca9e64"/>
    <rect id="Rectángulo_300" data-name="Rectángulo 300" width="1.723" height="1.723" transform="translate(3.723 14.715)" fill="#ca9e64"/>
    <rect id="Rectángulo_301" data-name="Rectángulo 301" width="1.723" height="1.723" transform="translate(5.446 15.929)" fill="#ca9e64"/>
    <rect id="Rectángulo_302" data-name="Rectángulo 302" width="1.723" height="1.723" transform="translate(2 15.929)" fill="#ca9e64"/>
    <path id="Trazado_660" data-name="Trazado 660" d="M31.388,16.118l2.625-3.8c.01-.014.052-.1.057-.113a.606.606,0,0,0,.027-.086.627.627,0,0,0,.014-.074,1.283,1.283,0,0,0-.006-.163.743.743,0,0,0-.023-.08.51.51,0,0,0-.03-.077.046.046,0,0,0-.007-.02,1.156,1.156,0,0,0-.073-.105L31.878,9.211A.625.625,0,0,0,31.408,9H25.827a.625.625,0,0,0-.47.211L23.264,11.6c-.014.016-.062.086-.074.105a.054.054,0,0,1-.007.02.567.567,0,0,0-.029.076.546.546,0,0,0-.023.081.534.534,0,0,0-.007.077.572.572,0,0,0,0,.086.5.5,0,0,0,.014.073.547.547,0,0,0,.027.087c0,.01.047.1.057.113l2.63,3.807a10.335,10.335,0,0,0-6.4,5,10.741,10.741,0,0,0-12.1-1.243A10.033,10.033,0,0,0,2.2,30.563a10.327,10.327,0,0,0,8.761,8.179A10.567,10.567,0,0,0,21.8,33.373,10.646,10.646,0,0,0,33.4,34.727a9.98,9.98,0,0,0,5.542-9.97,10.147,10.147,0,0,0-7.559-8.638Zm-1.218-.384.867-3.152h1.309Zm-7.2,12.9a9.815,9.815,0,0,0-.67-3.494A6.4,6.4,0,0,1,34.89,24.68a6.147,6.147,0,0,1-4.2,6.96A6.455,6.455,0,0,1,22.967,28.629Zm5.65-11.889-1.145-4.158H29.76Zm-2.5-6.546h5.01l1.048,1.194H25.067Zm.084,2.388.868,3.151-2.18-3.151Zm-7.96,13.35a9.7,9.7,0,0,0,.649,3.362,6.358,6.358,0,0,1-6.12,5.657,6.4,6.4,0,0,1-6.632-5.087A6.222,6.222,0,0,1,10.422,22.8a6.528,6.528,0,0,1,7.818,3.133ZM12.49,37.657a9.207,9.207,0,0,1-8.927-6.584A8.835,8.835,0,0,1,7.766,21a9.478,9.478,0,0,1,11.145,1.268,9.7,9.7,0,0,0-.5,1.731,7.831,7.831,0,0,0-9.159-2.028,7.366,7.366,0,0,0-4.306,8.087A7.583,7.583,0,0,0,11.961,36.1a7.665,7.665,0,0,0,7.8-5.079,10.121,10.121,0,0,0,1.11,1.456,9.252,9.252,0,0,1-8.376,5.175Zm16.127-2.985a9.047,9.047,0,0,1-9.083-7.865,8.888,8.888,0,0,1,7.044-9.628l.944,1.367a7.412,7.412,0,0,0-6.478,7.808,7.615,7.615,0,0,0,15.146,0,7.412,7.412,0,0,0-6.478-7.808l.943-1.367a8.887,8.887,0,0,1,7.054,9.627,9.046,9.046,0,0,1-9.088,7.866Z" transform="translate(-0.003 -0.554)" fill="#ca9e64"/>
  </g>
</svg>
