<svg xmlns="http://www.w3.org/2000/svg" width="35.498" height="28.344" viewBox="0 0 35.498 28.344">
  <g id="Grupo_282" data-name="Grupo 282" transform="translate(-76.292 -815.757)">
    <g id="Grupo_265" data-name="Grupo 265" transform="translate(91.052 822.147)">
      <g id="Grupo_264" data-name="Grupo 264" transform="translate(0 0)">
        <path id="Trazado_629" data-name="Trazado 629" d="M396.689,280.752c0,.054,0,.107-.005.161,0,.033-.027.21,0,.03a2.308,2.308,0,0,1-.07.3c-.014.049-.032.1-.049.145-.059.162.061-.131-.012.025a2.315,2.315,0,0,1-.177.3c-.018.026-.123.158-.015.023-.031.039-.065.076-.1.113a2.333,2.333,0,0,1-.219.205c.131-.11,0,0-.023.015s-.084.055-.127.081-.088.05-.132.073l-.091.044q.126-.051.021-.01a2.3,2.3,0,0,1-.294.089c-.051.012-.1.021-.153.03.178-.031,0,0-.03,0a2.349,2.349,0,0,1-.321,0c-.033,0-.21-.027-.03,0-.068-.01-.136-.026-.2-.042a2.291,2.291,0,0,1-.292-.1c.163.064.006,0-.023-.016-.045-.022-.089-.048-.132-.073s-.085-.053-.127-.081c-.027-.018-.158-.123-.023-.015a2.326,2.326,0,0,1-.253-.242c-.021-.023-.127-.155-.021-.018-.031-.04-.059-.081-.087-.123a2.321,2.321,0,0,1-.149-.263c-.077-.154.051.136-.012-.025-.019-.048-.034-.1-.049-.145s-.028-.1-.04-.149-.044-.265-.02-.077a2.341,2.341,0,0,1-.014-.32c0-.053,0-.107.009-.16.014-.179-.026.147,0-.028a2.291,2.291,0,0,1,.076-.3c.015-.049.034-.1.052-.144-.066.17.022-.035.039-.068a2.292,2.292,0,0,1,.16-.256c.1-.139-.091.11.018-.021.032-.038.067-.074.1-.11s.071-.07.108-.1.155-.128.018-.021a2.31,2.31,0,0,1,.3-.19c.044-.024.09-.046.136-.067-.158.074,0,0,.027-.008a2.287,2.287,0,0,1,.3-.083c.032-.007.207-.032.027-.009.053-.007.106-.01.159-.013a2.347,2.347,0,0,1,.373.013c-.179-.018-.007,0,.027.009.068.013.134.032.2.051s.129.043.193.068c-.17-.066.035.022.068.039a2.316,2.316,0,0,1,.3.19c-.145-.107.028.031.055.055.049.045.095.094.14.143.021.023.128.155.022.018.041.053.078.109.114.165s.068.116.1.175q.023.045.044.091-.051-.126-.01-.021a2.314,2.314,0,0,1,.1.345q.011.051.019.1-.017-.14,0-.023c.007.071.009.142.01.214a.676.676,0,0,0,1.352,0,2.987,2.987,0,0,0-5.967-.213,2.987,2.987,0,1,0,5.967.213.676.676,0,1,0-1.352,0Z" transform="translate(-392.059 -277.77)" fill="#ca9e64" stroke="#ca9e64" stroke-width="0.5"/>
      </g>
    </g>
    <g id="Grupo_267" data-name="Grupo 267" transform="translate(89.198 826.735)">
      <g id="Grupo_266" data-name="Grupo 266" transform="translate(0 0)">
        <path id="Trazado_630" data-name="Trazado 630" d="M345.7,396.644a3.727,3.727,0,0,0-1.407,1.72,3.67,3.67,0,0,0-.236,1.434v1.168a3.005,3.005,0,0,0,.089,1.076.691.691,0,0,0,.831.472.677.677,0,0,0,.472-.831,1.158,1.158,0,0,1-.044-.142c.022.086,0,.055,0-.016v-1.9c0-.042,0-.083,0-.124s.026-.281,0-.115a2.827,2.827,0,0,1,.1-.451c.022-.073.05-.144.078-.214-.06.15.039-.068.052-.095a2.846,2.846,0,0,1,.241-.379c-.095.128.054-.056.074-.078.05-.055.1-.107.158-.158s.112-.1.17-.146c-.124.1.067-.041.091-.057a.676.676,0,0,0-.682-1.167Z" transform="translate(-344.055 -396.549)" fill="#ca9e64" stroke="#ca9e64" stroke-width="0.5"/>
      </g>
    </g>
    <g id="Grupo_269" data-name="Grupo 269" transform="translate(96.204 826.721)">
      <g id="Grupo_268" data-name="Grupo 268">
        <path id="Trazado_631" data-name="Trazado 631" d="M528.032,401.714a3,3,0,0,0,.089-1.076v-1.168a3.846,3.846,0,0,0-.232-1.423,3.638,3.638,0,0,0-1.434-1.745.676.676,0,0,0-.682,1.167q.07.045.138.093.092.068,0-.005l.085.071a2.87,2.87,0,0,1,.31.316q.072.089,0-.006.033.044.065.09c.043.061.081.124.119.188s.071.131.1.2.032.068,0-.007c.014.035.028.07.04.105a2.841,2.841,0,0,1,.119.44q.019.118,0-.008.007.058.012.116c.007.079.009.158.01.236s0,.149,0,.223v1.674c0,.025,0,.048,0,.074,0-.133-.024.053-.038.089a.677.677,0,0,0,.472.831.691.691,0,0,0,.831-.472Z" transform="translate(-525.439 -396.207)" fill="#ca9e64" stroke="#ca9e64" stroke-width="0.5"/>
      </g>
    </g>
    <g id="Grupo_271" data-name="Grupo 271" transform="translate(79.561 831.578)">
      <g id="Grupo_270" data-name="Grupo 270" transform="translate(0)">
        <path id="Trazado_632" data-name="Trazado 632" d="M122.827,532.865H95.2l.584,1.017,2.439-4.451,2.638-4.813.908-1.657-.584.335h15.661l-.584-.335,2.6,4.736,2.427,4.429.962,1.756a.676.676,0,1,0,1.167-.682l-2.439-4.451-2.638-4.813-.908-1.657a.676.676,0,0,0-.584-.335H101.181a.676.676,0,0,0-.584.335L98,527.015l-2.427,4.429-.962,1.756a.683.683,0,0,0,.584,1.017h27.631a.676.676,0,1,0,0-1.352Z" transform="translate(-94.527 -521.944)" fill="#ca9e64" stroke="#ca9e64" stroke-width="0.5"/>
      </g>
    </g>
    <g id="Grupo_273" data-name="Grupo 273" transform="translate(103.345 827.702)">
      <g id="Grupo_272" data-name="Grupo 272" transform="translate(0 0)">
        <path id="Trazado_633" data-name="Trazado 633" d="M715.191,424.7c0,.054,0,.107-.005.161,0,.032-.024.211,0,.03a2.432,2.432,0,0,1-.066.3c-.014.049-.03.1-.047.146-.011.03-.079.188-.008.027a2.433,2.433,0,0,1-.169.31c-.027.043-.056.083-.085.124.1-.14,0,0-.019.02a2.44,2.44,0,0,1-.21.214c-.037.034-.076.066-.115.1.134-.109,0-.005-.025.013a2.446,2.446,0,0,1-.306.175c-.155.076.136-.051-.025.012-.048.019-.1.034-.145.05a2.428,2.428,0,0,1-.3.073c-.175.032.15-.014-.029,0-.053.005-.107.007-.16.009s-.108,0-.161,0c-.037,0-.271-.028-.083,0a2.423,2.423,0,0,1-.3-.066c-.049-.014-.1-.03-.146-.047-.03-.01-.188-.079-.027-.008a2.435,2.435,0,0,1-.267-.142c-.043-.026-.084-.054-.126-.083q-.09-.066.016.016l-.077-.064a2.451,2.451,0,0,1-.214-.21c-.034-.037-.066-.076-.1-.114.109.134.005,0-.013-.025a2.444,2.444,0,0,1-.153-.261c-.015-.028-.083-.185-.016-.023-.026-.063-.048-.128-.068-.192a2.454,2.454,0,0,1-.073-.3c-.032-.175.015.15,0-.029-.005-.053-.007-.107-.009-.16a2.481,2.481,0,0,1,.014-.32c-.017.179,0,.006.007-.027.012-.068.03-.135.048-.2.014-.049.03-.1.047-.146.01-.03.079-.188.008-.027a2.433,2.433,0,0,1,.142-.267c.026-.043.054-.084.083-.126.1-.141-.092.11.016-.022a2.466,2.466,0,0,1,.242-.253c.037-.034.076-.065.115-.1-.134.109,0,.005.025-.013a2.437,2.437,0,0,1,.26-.153c.028-.015.185-.083.023-.016.047-.02.1-.036.144-.053a2.443,2.443,0,0,1,.35-.088q.115-.018-.024,0l.106-.009a2.485,2.485,0,0,1,.268,0l.106.007c.179.014-.147-.026.029,0a2.433,2.433,0,0,1,.252.058c.066.018.13.041.194.065s.063.025-.021-.01c.046.021.091.044.136.067a2.441,2.441,0,0,1,.216.129l.082.058c-.14-.1,0,0,.02.019a2.469,2.469,0,0,1,.312.324c-.114-.139.044.073.067.109a2.455,2.455,0,0,1,.121.221q.047.1-.007-.022.019.047.036.1a2.469,2.469,0,0,1,.073.246c.011.043.052.316.029.129a2.428,2.428,0,0,1,.015.266.676.676,0,0,0,1.352,0,3.194,3.194,0,0,0-1.376-2.585,3.09,3.09,0,0,0-2.839-.333,3.115,3.115,0,0,0-1.2,5.033,3.121,3.121,0,0,0,3.388.8,3.163,3.163,0,0,0,2.024-2.918.676.676,0,0,0-1.352,0Z" transform="translate(-710.304 -421.578)" fill="#ca9e64" stroke="#ca9e64" stroke-width="0.5"/>
      </g>
    </g>
    <g id="Grupo_275" data-name="Grupo 275" transform="translate(104.745 832.542)">
      <g id="Grupo_274" data-name="Grupo 274" transform="translate(0 0)">
        <path id="Trazado_634" data-name="Trazado 634" d="M750.947,548.166c.047.03.093.061.138.093.151.106-.1-.087.039.029a3.051,3.051,0,0,1,.243.225c.039.039.075.081.112.122.016.018.13.162.033.035a3.02,3.02,0,0,1,.212.325c.028.048.053.1.078.148.011.021.085.192.023.043a2.985,2.985,0,0,1,.181.656c-.027-.165,0,.026,0,.051.007.078.008.157.009.236,0,.466,0,.933,0,1.4v.6c0,.044-.01.146.011-.006a.947.947,0,0,1-.038.15c.048-.154,0-.016-.018.021-.083.144.094-.1-.016.022-.024.027-.151.122-.015.024a.941.941,0,0,1-.131.075c.154-.078-.037,0-.083.008.16-.031.023-.011-.021-.011h-4.455a.676.676,0,0,0,0,1.352h4.5a1.633,1.633,0,0,0,1.439-.877,2.649,2.649,0,0,0,.182-1.254v-1.289a4.112,4.112,0,0,0-.241-1.517,3.8,3.8,0,0,0-1.5-1.827.676.676,0,1,0-.682,1.167Z" transform="translate(-746.576 -546.904)" fill="#ca9e64" stroke="#ca9e64" stroke-width="0.5"/>
      </g>
    </g>
    <g id="Grupo_277" data-name="Grupo 277" transform="translate(78.508 827.702)">
      <g id="Grupo_276" data-name="Grupo 276" transform="translate(0 0)">
        <path id="Trazado_635" data-name="Trazado 635" d="M72.163,424.7c0,.054,0,.107-.005.161,0,.032-.024.211,0,.03a2.419,2.419,0,0,1-.066.3c-.014.049-.03.1-.047.146-.01.03-.079.188-.008.027a2.437,2.437,0,0,1-.169.31c-.027.043-.056.083-.085.124.1-.14,0,0-.019.02a2.451,2.451,0,0,1-.21.214c-.037.034-.076.066-.114.1.134-.109,0-.005-.025.013a2.438,2.438,0,0,1-.306.175c-.155.076.136-.051-.025.012-.048.019-.1.034-.145.05a2.431,2.431,0,0,1-.3.073c-.175.032.15-.014-.029,0-.053.005-.106.007-.16.009s-.108,0-.161,0c-.037,0-.271-.028-.083,0a2.426,2.426,0,0,1-.3-.066c-.049-.014-.1-.03-.146-.047-.03-.01-.188-.079-.027-.008a2.432,2.432,0,0,1-.267-.142c-.043-.026-.085-.054-.126-.083q-.09-.066.016.016l-.077-.064a2.451,2.451,0,0,1-.214-.21c-.034-.037-.066-.076-.1-.114.109.134.005,0-.013-.025a2.445,2.445,0,0,1-.153-.261c-.015-.028-.083-.185-.016-.023-.026-.063-.048-.128-.069-.192a2.429,2.429,0,0,1-.073-.3c-.032-.175.014.15,0-.029-.005-.053-.007-.107-.009-.16a2.474,2.474,0,0,1,.014-.32c-.017.179,0,.006.007-.027.013-.068.03-.135.048-.2.014-.049.03-.1.047-.146.01-.03.079-.188.008-.027a2.436,2.436,0,0,1,.142-.267c.026-.043.054-.084.083-.126.1-.141-.092.11.016-.022a2.465,2.465,0,0,1,.242-.253c.037-.034.076-.065.114-.1-.134.109,0,.005.025-.013a2.444,2.444,0,0,1,.261-.153c.028-.015.185-.083.023-.016.047-.02.1-.036.144-.053a2.443,2.443,0,0,1,.35-.088q.115-.018-.024,0l.106-.009a2.486,2.486,0,0,1,.268,0l.106.007c.179.014-.147-.026.029,0a2.428,2.428,0,0,1,.252.058c.066.018.13.041.194.065s.063.025-.021-.01c.046.021.091.044.136.067a2.434,2.434,0,0,1,.216.129l.082.058c-.14-.1,0,0,.02.019a2.461,2.461,0,0,1,.312.324c-.113-.139.045.073.067.109a2.436,2.436,0,0,1,.121.221q.047.1-.007-.022.019.047.036.1a2.441,2.441,0,0,1,.073.246c.011.043.052.316.029.129a2.455,2.455,0,0,1,.014.266.676.676,0,0,0,1.352,0,3.194,3.194,0,0,0-1.376-2.585,3.09,3.09,0,0,0-2.839-.333,3.115,3.115,0,0,0-1.2,5.033,3.121,3.121,0,0,0,3.388.8,3.163,3.163,0,0,0,2.024-2.918.676.676,0,0,0-1.352,0Z" transform="translate(-67.277 -421.578)" fill="#ca9e64" stroke="#ca9e64" stroke-width="0.5"/>
      </g>
    </g>
    <g id="Grupo_279" data-name="Grupo 279" transform="translate(76.54 832.556)">
      <g id="Grupo_278" data-name="Grupo 278" transform="translate(0 0)">
        <path id="Trazado_636" data-name="Trazado 636" d="M18.051,547.367a3.759,3.759,0,0,0-1.689,2.7,12.372,12.372,0,0,0-.028,1.554,2.952,2.952,0,0,0,.287,1.789,1.65,1.65,0,0,0,1.341.705h4.491a.676.676,0,0,0,0-1.352h-4.5c-.177,0,.14.034-.03,0-.034-.007-.189-.068-.032,0a.949.949,0,0,1-.131-.075c.136.088.014.005-.015-.024-.117-.117.074.117-.016-.022-.021-.032-.077-.179-.018-.021a.941.941,0,0,1-.038-.15c.024.123.011.077.011.017V550.65c0-.076,0-.152,0-.227s.007-.158.014-.237.008-.078,0,.005q.009-.057.02-.114a2.981,2.981,0,0,1,.123-.442q.019-.053.041-.106-.047.112,0,.006c.032-.068.068-.134.1-.2s.077-.128.118-.19c.016-.025.161-.212.061-.087a3.022,3.022,0,0,1,.307-.323c.021-.02.205-.17.078-.072.059-.045.121-.087.183-.128a.676.676,0,1,0-.682-1.167Z" transform="translate(-16.323 -547.272)" fill="#ca9e64" stroke="#ca9e64" stroke-width="0.5"/>
      </g>
    </g>
    <g id="Grupo_281" data-name="Grupo 281" transform="translate(83.366 816.007)">
      <g id="Grupo_280" data-name="Grupo 280" transform="translate(0 0)">
        <path id="Trazado_637" data-name="Trazado 637" d="M194.408,128.263v-8.787l-.676.676h20.046l-.676-.676v8.787a.676.676,0,0,0,1.352,0v-8.787a.682.682,0,0,0-.676-.676H193.732a.682.682,0,0,0-.676.676v8.787a.676.676,0,0,0,1.352,0Z" transform="translate(-193.056 -118.8)" fill="#ca9e64" stroke="#ca9e64" stroke-width="0.5"/>
      </g>
    </g>
  </g>
</svg>
