<svg xmlns="http://www.w3.org/2000/svg" width="29.966" height="29.964" viewBox="0 0 29.966 29.964">
  <path id="Trazado_691" data-name="Trazado 691" d="M29.918,8.928a14.983,14.983,0,0,0-14.43-5.714c-.413.067-.821.155-1.23.258s-.806.222-1.2.362h0A14.983,14.983,0,0,0,3,17.985c0,.108,0,.222,0,.336a14.771,14.771,0,0,0,2.687,8.215c.238.346.517.682.759,1a10.919,10.919,0,0,0,.842.935h0a14.983,14.983,0,0,0,6.355,3.849h0a14.869,14.869,0,0,0,8.669,0,14.316,14.316,0,0,0,2.33-.9,14.709,14.709,0,0,0,1.441-.832,15.014,15.014,0,0,0,4.2-4.035h0a14.823,14.823,0,0,0,2.681-8.235v-.331a15.12,15.12,0,0,0-.439-3.615,14.725,14.725,0,0,0-2.609-5.442Zm-2.34,18.455-.036.031c-.222.227-.455.444-.7.656l-.186.16a13.737,13.737,0,0,1-1.617,1.178l-.212.124c-.279.17-.568.331-.863.475h0c-.227.114-.46.212-.692.31a15.567,15.567,0,0,1,1.431-3.1A16.016,16.016,0,0,1,28.1,26.8C27.923,27.006,27.758,27.2,27.577,27.383Zm1.669-2.067h-.94a17.468,17.468,0,0,0-3.772.418l-1.55-2.1a17.525,17.525,0,0,0,1.55-3.462,17.974,17.974,0,0,0,.77-3.72l2.5-.847a18.165,18.165,0,0,0,2.816,2.583c.258.181.517.351.765.517a13.319,13.319,0,0,1-2.134,6.582Zm-17.236,4.7h-.026c-.289-.145-.568-.3-.847-.47-.072-.041-.145-.083-.212-.129A13.862,13.862,0,0,1,9.308,28.24l-.186-.16c-.243-.212-.48-.434-.7-.661l-.031-.026c-.176-.181-.341-.377-.517-.568a16.336,16.336,0,0,1,3.389.408,16.016,16.016,0,0,1,1.436,3.1C12.47,30.224,12.238,30.126,12.01,30.012Zm-.573-4.34a17.566,17.566,0,0,0-4.712-.382,13.273,13.273,0,0,1-2.144-6.613c.263-.17.517-.341.77-.517a17.566,17.566,0,0,0,2.805-2.583l2.464.8a17.5,17.5,0,0,0,.77,3.72,17.747,17.747,0,0,0,1.55,3.462ZM4.757,15.644c.046-.258.1-.517.155-.765a.829.829,0,0,1,.052-.217c.077-.31.165-.615.269-.92l.062-.186c.088-.248.181-.491.284-.734l.1-.238c.129-.294.263-.579.413-.863l.052-.088c.1-.181.207-.362.315-.542a15.778,15.778,0,0,1,.677,3.358,16.274,16.274,0,0,1-2.511,2.335,5.917,5.917,0,0,1,.108-.9A.956.956,0,0,1,4.757,15.644Zm9.61,7.311a16.251,16.251,0,0,1-2.232-6.866,16.409,16.409,0,0,1,2.681-2.459,16.161,16.161,0,0,1,3.167-1.788,16.016,16.016,0,0,1,5.843,4.247,16.161,16.161,0,0,1-.728,3.555,15.779,15.779,0,0,1-1.5,3.307,16.016,16.016,0,0,1-7.233.005ZM15.73,4.738h.057c.3-.052.615-.088.92-.119H17a4.126,4.126,0,0,1,.909-.067h.145a6.659,6.659,0,0,1,.909.041h.294c.31.031.615.067.925.119h.052c.248.041.517.1.734.16a16.218,16.218,0,0,1-2.986,1.689A16.559,16.559,0,0,1,15,4.9C15.239,4.841,15.482,4.779,15.73,4.738Zm14.094,6.9.052.088c.15.279.284.568.413.858.031.083.067.16.1.243.1.243.2.486.279.734.026.062.046.124.067.186.1.3.191.6.269.914a1.151,1.151,0,0,0,.052.222c.057.253.108.517.155.759a1.987,1.987,0,0,0,.041.243c.046.3.083.594.108.9a16.016,16.016,0,0,1-2.526-2.33,15.779,15.779,0,0,1,.661-3.358A4.472,4.472,0,0,1,29.825,11.64Zm-1.41-2.1c-.114.3-.222.594-.315.873a17.5,17.5,0,0,0-.77,3.72l-2.47.8a17.814,17.814,0,0,0-2.805-2.557,17.763,17.763,0,0,0-3.3-1.881V7.91a17.473,17.473,0,0,0,3.3-1.881c.253-.181.491-.382.734-.579a13.3,13.3,0,0,1,5.626,4.087ZM13.173,5.451c.253.207.517.4.739.573a17.763,17.763,0,0,0,3.3,1.881v2.583a17.452,17.452,0,0,0-3.3,1.875A17.9,17.9,0,0,0,11.1,14.921l-2.464-.8a17.5,17.5,0,0,0-.77-3.72c-.1-.3-.207-.594-.315-.878a13.386,13.386,0,0,1,5.621-4.071Zm1.333,25.5c-.072-.284-.155-.573-.258-.894a17.608,17.608,0,0,0-1.55-3.462l1.519-2.067a17.923,17.923,0,0,0,3.777.418,17.509,17.509,0,0,0,3.772-.424l1.55,2.1a17.458,17.458,0,0,0-1.55,3.456c-.1.3-.181.6-.258.9a13.433,13.433,0,0,1-7-.026Z" transform="translate(-3 -3.004)" fill="#ca9e64"/>
</svg>
