<svg xmlns="http://www.w3.org/2000/svg" width="25.45" height="35.63" viewBox="0 0 25.45 35.63">
  <g id="Grupo_354" data-name="Grupo 354" transform="translate(-12 -4)">
    <path id="Trazado_697" data-name="Trazado 697" d="M35.078,42.387a.655.655,0,0,0-.655.655,1.244,1.244,0,0,1-1.241,1.243H20.853a1.244,1.244,0,0,1-1.241-1.243.655.655,0,1,0-1.31,0A2.556,2.556,0,0,0,20.853,45.6h4.274l1.964,8,1.817-8h4.274a2.556,2.556,0,0,0,2.551-2.555A.654.654,0,0,0,35.078,42.387ZM27.042,47.9l-.429-1.75.827,0Z" transform="translate(-2.292 -13.963)" fill="#fff"/>
    <path id="Trazado_698" data-name="Trazado 698" d="M24.725,4A12.738,12.738,0,1,0,37.45,16.738,12.746,12.746,0,0,0,24.725,4Zm0,24.165A11.427,11.427,0,1,1,36.14,16.738,11.434,11.434,0,0,1,24.725,28.165Z" transform="translate(0 0)" fill="#fff"/>
    <path id="Trazado_699" data-name="Trazado 699" d="M33.448,11.62a1.966,1.966,0,0,0-2.647.846.655.655,0,1,0,1.164.6.655.655,0,0,1,1.164.6.655.655,0,1,0,1.164.6,1.969,1.969,0,0,0-.844-2.651Z" transform="translate(-6.812 -2.692)" fill="#fff"/>
    <path id="Trazado_700" data-name="Trazado 700" d="M39.868,10.487a1.967,1.967,0,0,0-2.647.846.655.655,0,1,0,1.164.6.655.655,0,0,1,1.164.6.655.655,0,1,0,1.164.6,1.969,1.969,0,0,0-.845-2.651Z" transform="translate(-9.147 -2.28)" fill="#fff"/>
    <path id="Trazado_701" data-name="Trazado 701" d="M39.868,15.555a1.966,1.966,0,0,0-2.647.846.655.655,0,1,0,1.164.6.655.655,0,1,1,1.164.6.655.655,0,1,0,1.164.6,1.968,1.968,0,0,0-.845-2.651Z" transform="translate(-9.147 -4.123)" fill="#fff"/>
  </g>
</svg>
