<svg xmlns="http://www.w3.org/2000/svg" width="22.38" height="37.239" viewBox="0 0 22.38 37.239">
  <path id="Trazado_688" data-name="Trazado 688" d="M115.147,41.765l.371,3.353a1.17,1.17,0,0,0,1.168,1.121h.009l10.241-.125a1.189,1.189,0,0,0,1.134-.972l0-.008,9.378-33.663a1.946,1.946,0,1,0-3.749-1.048l-2.124,7.594a.7.7,0,0,0-.061.218l-6.31,22.56-8.874-.275h-.022a1.17,1.17,0,0,0-1.168,1.169A.727.727,0,0,0,115.147,41.765ZM135.05,10.8a.546.546,0,1,1,1.052.295l-1.815,6.515h-1.142Zm-9.338,31.411a.7.7,0,0,0,.7-.511l6.346-22.69H133.9l-7.161,25.707-9.839.12-.322-2.909Z" transform="translate(-115.143 -9)" fill="#ca9e64"/>
</svg>
