<svg xmlns="http://www.w3.org/2000/svg" width="36.129" height="17.35" viewBox="0 0 36.129 17.35">
  <g id="Grupo_867" data-name="Grupo 867" transform="translate(-612 -352)">
    <g id="Grupo_347" data-name="Grupo 347" transform="translate(612 361.825)">
      <path id="Trazado_692" data-name="Trazado 692" d="M20.064,30.513a9.2,9.2,0,0,1-3.77-.806,7.722,7.722,0,0,0-6.309,0,9.219,9.219,0,0,1-7.541,0,.752.752,0,1,1,.616-1.373,7.722,7.722,0,0,0,6.309,0,9.219,9.219,0,0,1,7.541,0,7.72,7.72,0,0,0,6.308,0,9.225,9.225,0,0,1,7.541,0,7.722,7.722,0,0,0,6.309,0,.752.752,0,1,1,.616,1.373,9.225,9.225,0,0,1-7.541,0,7.722,7.722,0,0,0-6.309,0A9.213,9.213,0,0,1,20.064,30.513Z" transform="translate(-2 -27.528)" fill="#ca9e64"/>
    </g>
    <g id="Grupo_348" data-name="Grupo 348" transform="translate(612 366.364)">
      <path id="Trazado_693" data-name="Trazado 693" d="M20.064,36.544a9.2,9.2,0,0,1-3.77-.806,7.722,7.722,0,0,0-6.309,0,9.219,9.219,0,0,1-7.541,0,.752.752,0,0,1,.616-1.373,7.722,7.722,0,0,0,6.309,0,9.219,9.219,0,0,1,7.541,0,7.72,7.72,0,0,0,6.308,0,9.225,9.225,0,0,1,7.541,0,7.722,7.722,0,0,0,6.309,0,.752.752,0,0,1,.616,1.373,9.225,9.225,0,0,1-7.541,0,7.722,7.722,0,0,0-6.309,0A9.213,9.213,0,0,1,20.064,36.544Z" transform="translate(-2 -33.559)" fill="#ca9e64"/>
    </g>
    <g id="Grupo_349" data-name="Grupo 349" transform="translate(625.221 353.35)">
      <path id="Trazado_694" data-name="Trazado 694" d="M24.468,27.728a9.213,9.213,0,0,1-3.77-.806c-.118-.053-.279-.109-.421-.16l-.1-.035a.752.752,0,0,1-.3-1.348l5.271-3.832-.037-.764h-3.2a2.259,2.259,0,0,1,.148-4.516h4.518a2.251,2.251,0,0,1,1.745.825l7.118,8.665a.753.753,0,0,1-.889,1.165,7.894,7.894,0,0,0-.791-.3,7.7,7.7,0,0,0-5.519.3A9.214,9.214,0,0,1,24.468,27.728Zm-2.58-1.949a7.727,7.727,0,0,0,5.735-.23,9.171,9.171,0,0,1,5.111-.709l-5.579-6.792a.749.749,0,0,0-.581-.275H22.056a.8.8,0,0,0-.811.6.754.754,0,0,0,.7.9h3.868A.766.766,0,0,1,26.58,20l.071,1.48a1.5,1.5,0,0,1-.619,1.29Z" transform="translate(-19.566 -16.268)" fill="#ca9e64"/>
    </g>
    <g id="Grupo_350" data-name="Grupo 350" transform="translate(638.754 352)">
      <path id="Trazado_695" data-name="Trazado 695" d="M41.276,21.937a3.731,3.731,0,1,1,3.732-3.731A3.735,3.735,0,0,1,41.276,21.937Zm0-5.957A2.226,2.226,0,1,0,43.5,18.206,2.228,2.228,0,0,0,41.276,15.98Z" transform="translate(-37.545 -14.474)" fill="#ca9e64"/>
    </g>
  </g>
</svg>
