<svg xmlns="http://www.w3.org/2000/svg" width="14.819" height="33.66" viewBox="0 0 14.819 33.66">
  <g id="Grupo_865" data-name="Grupo 865" transform="translate(-833 -344)">
    <path id="Trazado_690" data-name="Trazado 690" d="M45.344,18.821a.635.635,0,0,0,.058-.091,12.733,12.733,0,0,0,1.962-6.474c0-4.555-3.324-8.261-7.41-8.261a6.789,6.789,0,0,0-3.687,1.1.658.658,0,0,0-.258.173,8.514,8.514,0,0,0-3.465,6.988c0,3.705,2.287,8.469,5.622,9.788V35.867a1.794,1.794,0,0,0,1.788,1.788,1.79,1.79,0,0,0,1.788-1.788V22.044A8.009,8.009,0,0,0,45.344,18.821ZM34.734,8.7h1.1v2.14H33.993A7.468,7.468,0,0,1,34.734,8.7Zm9.724,9.059h-.384V15.62h1.365A11.816,11.816,0,0,1,44.458,17.76Zm-3.843-6.919V8.7h2.139v2.14Zm2.139,1.32V14.3H40.614V12.161Zm-3.459-1.32H37.155V8.7h2.139Zm0,1.32V14.3H37.155V12.161Zm0,3.46V17.76H37.155V15.62Zm1.32,0h2.139V17.76H40.614Zm3.459-1.32V12.161H46.04c0,.032,0,.063,0,.1A9.68,9.68,0,0,1,45.81,14.3Zm0-3.46V8.7h1.1a7.478,7.478,0,0,1,.741,2.14Zm0-3.46V7.159c.07.074.142.145.209.222Zm-1.32,0H40.614V5.357a5.508,5.508,0,0,1,2.139.741Zm-3.459,0H37.155V6.1a5.508,5.508,0,0,1,2.139-.741Zm-3.459,0h-.209c.067-.077.139-.148.209-.222Zm0,4.78V14.3H34.1a9.661,9.661,0,0,1-.234-2.044c0-.032,0-.063,0-.1h1.966Zm0,3.46V17.76H35.45a11.849,11.849,0,0,1-.981-2.139Zm1.32,3.459h2.139V21c-.094-.019-.189-.034-.282-.061h0a4.9,4.9,0,0,1-1.854-1.062v-.8ZM40.9,20.942c-.093.027-.188.042-.282.061V19.08h2.139v.744c0,.017,0,.033,0,.05A4.9,4.9,0,0,1,40.9,20.942Zm-.474,14.925a.468.468,0,0,1-.468.468.458.458,0,0,1-.337-.147.442.442,0,0,1-.131-.321V22.374l.052,0c.138.013.277.021.416.021s.278-.009.416-.021l.051,0Z" transform="translate(800.455 340.005)" fill="#ca9e64"/>
  </g>
</svg>
