<svg xmlns="http://www.w3.org/2000/svg" width="20.608" height="33.844" viewBox="0 0 20.608 33.844">
  <g id="Grupo_863" data-name="Grupo 863" transform="translate(-514.999 -344)">
    <path id="Trazado_676" data-name="Trazado 676" d="M28.3,42.844c-2.141,0-4.414-1.471-6.32-3.973a18.291,18.291,0,0,1-1.854-3.12c-.25-.552-.449-1.015-.625-1.471a23.948,23.948,0,0,1,0-16.709c.169-.456.368-.92.618-1.471a17.8,17.8,0,0,1,1.854-3.127C23.885,10.471,26.158,9,28.3,9s4.414,1.471,6.32,3.973a18,18,0,0,1,1.854,3.12c.25.552.449,1.015.625,1.471a23.948,23.948,0,0,1,0,16.709c-.169.456-.368.92-.618,1.471a18.077,18.077,0,0,1-1.854,3.127C32.713,41.372,30.44,42.844,28.3,42.844Zm0-32.372c-1.67,0-3.546,1.236-5.15,3.384a16.032,16.032,0,0,0-1.692,2.869,13.935,13.935,0,0,0-.581,1.361,22.418,22.418,0,0,0,0,15.664,14.883,14.883,0,0,0,.581,1.376,16.5,16.5,0,0,0,1.692,2.862c1.6,2.148,3.473,3.384,5.15,3.384s3.546-1.236,5.15-3.384a16.3,16.3,0,0,0,1.692-2.869,14.715,14.715,0,0,0,.581-1.361,22.418,22.418,0,0,0,0-15.664,14.084,14.084,0,0,0-.581-1.376,16.223,16.223,0,0,0-1.692-2.862C31.845,11.708,29.969,10.471,28.3,10.471Z" transform="translate(497.004 335)" fill="#ca9e64"/>
    <path id="Trazado_677" data-name="Trazado 677" d="M29.044,18.88c-.581,0-1.155-.037-1.935-.1l-5.636-.515A.712.712,0,0,1,20.9,17.21a18,18,0,0,1,1.854-3.12.736.736,0,0,1,.493-.287l3.1-.4a21.189,21.189,0,0,1,5.459,0l3.1.4a.736.736,0,0,1,.493.287,18,18,0,0,1,1.854,3.12.712.712,0,0,1-.574,1.052l-5.636.515C30.2,18.844,29.626,18.88,29.044,18.88ZM22.68,16.894l4.562.412a15.546,15.546,0,0,0,3.605,0l4.562-.412a16.561,16.561,0,0,0-1.037-1.67l-2.788-.361a19.541,19.541,0,0,0-5.077,0l-2.788.361a15.773,15.773,0,0,0-1.037,1.67Z" transform="translate(496.26 333.882)" fill="#ca9e64"/>
    <path id="Trazado_678" data-name="Trazado 678" d="M29.034,48.61a41.59,41.59,0,0,1-5.327-.338l-.5-.059a.736.736,0,0,1-.493-.287,18.291,18.291,0,0,1-1.854-3.12.712.712,0,0,1,.574-1.052l3.8-.346a41.724,41.724,0,0,1,7.549,0l3.8.346a.712.712,0,0,1,.574,1.052,18.29,18.29,0,0,1-1.854,3.12.736.736,0,0,1-.493.287l-.5.066a41.591,41.591,0,0,1-5.268.331Zm-5.319-1.825H23.9a40.664,40.664,0,0,0,10.3,0h.184a14.714,14.714,0,0,0,1.045-1.67l-2.715-.243a38.853,38.853,0,0,0-7.284,0l-2.722.243A14.714,14.714,0,0,0,23.714,46.786Z" transform="translate(496.27 325.952)" fill="#ca9e64"/>
    <path id="Trazado_679" data-name="Trazado 679" d="M37.337,38.384a.736.736,0,0,1-.736-.92c1.92-7.453-.265-17.952-.287-18.062a.737.737,0,0,1,1.442-.3c.088.441,2.281,10.94.265,18.732A.736.736,0,0,1,37.337,38.384Z" transform="translate(492.168 332.485)" fill="#ca9e64"/>
    <path id="Trazado_680" data-name="Trazado 680" d="M37.1,28.781a19.968,19.968,0,0,1-3.517-.324.75.75,0,1,1,.294-1.471s3.509.692,5.5,0a.738.738,0,1,1,.471,1.4,9.05,9.05,0,0,1-2.752.4Z" transform="translate(493.045 330.257)" fill="#ca9e64"/>
    <path id="Trazado_681" data-name="Trazado 681" d="M37.1,32.781a19.968,19.968,0,0,1-3.517-.324.75.75,0,1,1,.294-1.471s3.509.692,5.5,0a.738.738,0,0,1,.471,1.4,9.05,9.05,0,0,1-2.752.4Z" transform="translate(493.045 329.2)" fill="#ca9e64"/>
    <path id="Trazado_682" data-name="Trazado 682" d="M37.1,36.781a19.968,19.968,0,0,1-3.517-.324.75.75,0,1,1,.294-1.471s3.509.684,5.5,0a.738.738,0,1,1,.471,1.4,9.05,9.05,0,0,1-2.752.4Z" transform="translate(493.045 328.143)" fill="#ca9e64"/>
  </g>
</svg>
