<svg xmlns="http://www.w3.org/2000/svg" width="25.899" height="26.435" viewBox="0 0 25.899 26.435">
  <g id="Grupo_866" data-name="Grupo 866" transform="translate(-723 -347)">
    <path id="Trazado_683" data-name="Trazado 683" d="M21.542,23.722a.505.505,0,0,0-.716-.275,6.66,6.66,0,0,1-.992.275.571.571,0,0,0-.441.661.536.536,0,0,0,.551.441h.11a4.453,4.453,0,0,0,1.212-.386A.6.6,0,0,0,21.542,23.722Z" transform="translate(714.027 336.493)" fill="#ca9e64"/>
    <path id="Trazado_684" data-name="Trazado 684" d="M11.423,20.534a7.717,7.717,0,0,1-5.895-4.077.567.567,0,1,0-.992.551,9.894,9.894,0,0,0,1.6,2.148,8.565,8.565,0,0,0,5.178,2.534h.055a.543.543,0,0,0,.551-.5A.569.569,0,0,0,11.423,20.534Z" transform="translate(720.73 339.736)" fill="#ca9e64"/>
    <path id="Trazado_685" data-name="Trazado 685" d="M25.89,22.868l-3.416-3.416a1.688,1.688,0,0,0-2.259-.055c-.826-1.157-1.708-2.424-2.479-3.691-.606-1.047-1.157-2.038-1.6-2.92a6.3,6.3,0,0,0,.5-2.534,8.424,8.424,0,0,0-.992-4.242A4.078,4.078,0,0,0,9.529.887a7.008,7.008,0,0,0-7.106,1.6c-2.92,2.865-2.479,7.988.937,11.4a9.493,9.493,0,0,0,6.556,2.865h.275a6.536,6.536,0,0,0,2.534-.551,32.312,32.312,0,0,1,2.92,1.6,39.092,39.092,0,0,1,3.691,2.479,1.63,1.63,0,0,0,.055,2.259L22.8,25.953a1.586,1.586,0,0,0,1.157.5,1.5,1.5,0,0,0,1.157-.5h0l.771-.771A1.6,1.6,0,0,0,25.89,22.868ZM14.211,1.989A2.925,2.925,0,0,1,14.6,5.68h0l-.055.055c-.11.11-.22.275-.331.386h0a2.927,2.927,0,0,1-4.187,0,2.959,2.959,0,0,1,0-4.187A3.011,3.011,0,0,1,14.211,1.989ZM10.135,15.651a8.344,8.344,0,0,1-6-2.534C1.155,10.142.714,5.68,3.193,3.256a5.616,5.616,0,0,1,4.021-1.6A6.838,6.838,0,0,1,8.7,1.824h0c-.11.165-.22.386-.331.551a.054.054,0,0,1-.055.055c-.055.165-.165.386-.22.606v.11c-.055.22-.055.386-.11.606v.661h0a1.98,1.98,0,0,0,.11.606v.055a2.685,2.685,0,0,0,.22.606c0,.055,0,.055.055.11.11.165.22.386.331.551a.054.054,0,0,0,.055.055,3.86,3.86,0,0,0,.441.551,4.1,4.1,0,0,0,2.865,1.212H12.5a.5.5,0,0,0,.275-.055h.11c.11,0,.165-.055.275-.055h.11c.11-.055.165-.055.275-.11.055,0,.055,0,.11-.055.11-.055.165-.055.275-.11.055,0,.055,0,.11-.055.11-.055.165-.11.275-.165.055,0,.055-.055.11-.055.055-.055.165-.11.22-.165.055,0,.055-.055.11-.055.055-.055.165-.11.22-.165l.055-.055a8.3,8.3,0,0,1,.661,3.2h0a5.545,5.545,0,0,1-.441,2.148c0,.055-.055.11-.055.165a4.321,4.321,0,0,1-.606.992,4.006,4.006,0,0,1-.441.5A4.261,4.261,0,0,1,12.614,15.1h0c-.055,0-.11.055-.165.055A5.833,5.833,0,0,1,10.135,15.651Zm6.06,1.212c-.826-.5-1.6-.881-2.259-1.267h0c.11-.055.22-.165.331-.22.055-.055.11-.055.11-.11.165-.11.275-.275.441-.386a3.149,3.149,0,0,0,.386-.441v-.055a3.056,3.056,0,0,0,.331-.441h0c.386.716.771,1.487,1.267,2.314.331.551.661,1.1,1.047,1.653C17.3,17.524,16.745,17.194,16.194,16.863Zm8.924,7.547-.771.771a.533.533,0,0,1-.771,0l-3.416-3.416a.533.533,0,0,1,0-.771l.771-.771a.533.533,0,0,1,.771,0l3.416,3.416a.533.533,0,0,1,0,.771Z" transform="translate(722.514 346.987)" fill="#ca9e64"/>
  </g>
</svg>
