<svg xmlns="http://www.w3.org/2000/svg" width="25.819" height="25.819" viewBox="0 0 25.819 25.819">
  <g id="Grupo_864" data-name="Grupo 864" transform="translate(-933 -348)">
    <path id="Trazado_696" data-name="Trazado 696" d="M12.91,0a12.91,12.91,0,1,0,12.91,12.91A12.91,12.91,0,0,0,12.91,0ZM1.614,12.91A11.3,11.3,0,0,1,5.253,4.631,11.191,11.191,0,0,1,8.875,12.91a11.191,11.191,0,0,1-3.623,8.278A11.3,11.3,0,0,1,1.614,12.91Zm4.914,9.311a12.789,12.789,0,0,0,3.962-9.311A12.789,12.789,0,0,0,6.527,3.6,11.256,11.256,0,0,1,19.3,3.6a12.91,12.91,0,0,0,0,18.614,11.256,11.256,0,0,1-12.772,0ZM20.567,21.2a11.3,11.3,0,0,1,0-16.565,11.239,11.239,0,0,1,0,16.565Z" transform="translate(933 348)" fill="#ca9e64"/>
  </g>
</svg>
